<?xml version="1.0" encoding="UTF-8"?>
<svg version="1.1" xmlns="http://www.w3.org/2000/svg" width="512" height="512">
<path d="M0 0 C2.72163549 1.48411331 4.50606735 2.75246354 6.578125 5.08203125 C7.21191406 8.5168457 7.21191406 8.5168457 7.34375 12.3203125 C7.39821289 13.58528564 7.45267578 14.85025879 7.50878906 16.15356445 C7.54311035 17.60315552 7.54311035 17.60315552 7.578125 19.08203125 C11.42049714 16.89708522 15.26158499 14.70990248 19.1015625 12.52075195 C20.4046079 11.77829291 21.70798586 11.03641718 23.01171875 10.29516602 C24.89934326 9.22179671 26.78566841 8.14617106 28.671875 7.0703125 C29.28256836 6.72388702 29.89326172 6.37746155 30.52246094 6.02053833 C33.83114695 4.13148033 37.02130652 2.14010655 40.171875 0 C43.578125 -1.91796875 43.578125 -1.91796875 48.578125 -0.91796875 C51.548125 0.73203125 54.518125 2.38203125 57.578125 4.08203125 C57.578125 23.88203125 57.578125 43.68203125 57.578125 64.08203125 C65.168125 59.79203125 72.758125 55.50203125 80.578125 51.08203125 C86.64545895 49.86856446 88.98473064 50.76721401 94.23828125 53.71484375 C97.33024919 56.84294487 97.66023522 59.73691702 97.765625 63.95703125 C97.71720775 66.33236007 97.65690124 68.70751539 97.578125 71.08203125 C101.09849425 69.05683526 104.61815177 67.0304081 108.13720703 65.00292969 C109.32972927 64.31608305 110.52243197 63.6295496 111.71533203 62.94335938 C113.44873941 61.94617632 115.18140291 60.94770055 116.9140625 59.94921875 C118.04295898 59.30178711 119.17185547 58.65435547 120.33496094 57.98730469 C122.40850649 56.76915131 124.46155012 55.51494176 126.48535156 54.21582031 C127.35385742 53.65862305 128.22236328 53.10142578 129.1171875 52.52734375 C129.86436035 52.02992676 130.6115332 51.53250977 131.38134766 51.02001953 C133.578125 50.08203125 133.578125 50.08203125 138.578125 51.08203125 C141.548125 52.73203125 144.518125 54.38203125 147.578125 56.08203125 C147.578125 75.88203125 147.578125 95.68203125 147.578125 116.08203125 C155.71255466 110.96420509 155.71255466 110.96420509 163.79052734 105.75854492 C172.05234891 100.77652574 172.05234891 100.77652574 176.55566406 101.67822266 C179.13164269 102.95310266 181.30475926 104.33083527 183.578125 106.08203125 C184.568125 106.74203125 185.558125 107.40203125 186.578125 108.08203125 C186.96223775 110.69165225 187.18105697 113.08783865 187.265625 115.70703125 C187.29978516 116.4134375 187.33394531 117.11984375 187.36914062 117.84765625 C187.45163808 119.59188813 187.51655835 121.3369352 187.578125 123.08203125 C189.93251497 121.69366068 192.28641683 120.30449045 194.63916016 118.91333008 C196.64952592 117.72859769 198.66357587 116.55009609 200.68115234 115.37768555 C205.22157297 112.72722864 209.68896727 110.07812742 213.95703125 107.00390625 C217.44862169 104.53594944 220.50785262 102.47822933 224.578125 101.08203125 C229.63283043 102.1564345 233.89808187 104.40198812 237.578125 108.08203125 C237.68267297 110.84112215 237.72144552 113.57540662 237.71856689 116.33518982 C237.72302358 117.64895893 237.72302358 117.64895893 237.7275703 118.98926884 C237.73629762 121.9478521 237.73776897 124.90639509 237.73925781 127.86499023 C237.74388336 129.9769652 237.74890765 132.08893933 237.75430298 134.20091248 C237.76745955 139.95753914 237.77387895 145.71415412 237.77831364 151.47079349 C237.78124079 155.06680952 237.78534504 158.66282233 237.78981781 162.25883675 C237.80350497 173.50781695 237.8131641 184.75678982 237.8170197 196.00577778 C237.82149534 208.99340013 237.83901518 221.98091696 237.8680203 234.96850723 C237.88965108 245.00257312 237.89972483 255.03660937 237.90106082 265.07069832 C237.90210839 271.06483227 237.90800537 277.0588672 237.92588043 283.05297661 C237.94238381 288.69754895 237.9445055 294.34194812 237.93574142 299.98653603 C237.93497211 302.05447733 237.93929979 304.12242802 237.94919968 306.19034576 C237.96195845 309.02244149 237.95602087 311.85392762 237.94561768 314.6860199 C237.95770228 315.90197134 237.95770228 315.90197134 237.97003102 317.14248747 C237.91061017 324.10099785 236.46802132 330.69960143 233.0546875 336.80859375 C229.12228527 340.41846457 224.59113978 342.85110585 219.953125 345.45703125 C218.89351563 346.06353516 217.83390625 346.67003906 216.7421875 347.29492188 C214.49543553 348.58047538 212.24634938 349.86195682 209.99511719 351.13964844 C204.50682704 354.2594567 199.04421313 357.42354497 193.578125 360.58203125 C191.39325659 361.84119342 189.20836079 363.10030807 187.0234375 364.359375 C176.85213913 370.22766692 166.71613273 376.15648284 156.578125 382.08203125 C143.17194619 389.91778791 129.74891817 397.72240836 116.29394531 405.47412109 C105.0301525 411.96703003 93.80259736 418.52145681 82.578125 425.08203125 C69.17194619 432.91778791 55.74891817 440.72240836 42.29394531 448.47412109 C35.00190103 452.67755241 27.72217876 456.9014712 20.453125 461.14453125 C19.48246094 461.71091309 18.51179688 462.27729492 17.51171875 462.86083984 C12.34511205 465.87726676 7.18257536 468.9005039 2.0234375 471.9296875 C0.94465332 472.56189209 -0.13413086 473.19409668 -1.24560547 473.84545898 C-3.30057757 475.0498527 -5.35437014 476.25626219 -7.40673828 477.46508789 C-25.59126948 488.11486125 -25.59126948 488.11486125 -35.96484375 485.421875 C-42.36886233 483.12834277 -47.34339513 479.54234409 -52.421875 475.08203125 C-53.02773437 474.57027344 -53.63359375 474.05851562 -54.2578125 473.53125 C-66.00486684 462.82070046 -73.94220605 445.29665651 -74.8359375 429.48828125 C-74.91467474 427.51985019 -74.98485835 425.55106003 -75.046875 423.58203125 C-75.10488281 422.06222656 -75.10488281 422.06222656 -75.1640625 420.51171875 C-75.25751119 418.03532841 -75.34327373 415.55892974 -75.421875 413.08203125 C-77.91143727 414.48735666 -80.40072867 415.8931535 -82.8894043 417.30004883 C-85.00361736 418.49324771 -87.11968645 419.68316357 -89.23754883 420.86987305 C-96.01433302 424.67479795 -96.01433302 424.67479795 -102.64453125 428.7265625 C-109.91716504 433.32355601 -115.7327026 435.73828886 -124.421875 434.08203125 C-138.4801706 430.02718212 -149.46488431 417.73914018 -156.62890625 405.5703125 C-161.11005198 396.85209216 -164.33537026 387.6237899 -164.73828125 377.78125 C-164.78017578 376.80478516 -164.82207031 375.82832031 -164.86523438 374.82226562 C-164.90455078 373.81486328 -164.94386719 372.80746094 -164.984375 371.76953125 C-165.02755859 370.74279297 -165.07074219 369.71605469 -165.11523438 368.65820312 C-165.22094325 366.13293556 -165.32303968 363.60757563 -165.421875 361.08203125 C-166.51689331 361.7164917 -166.51689331 361.7164917 -167.6340332 362.36376953 C-170.39739582 363.96399043 -173.16148003 365.56295623 -175.92602539 367.16113281 C-177.11217884 367.84717053 -178.2980608 368.53367793 -179.48364258 369.22070312 C-205.9015006 384.52761959 -205.9015006 384.52761959 -216.03515625 381.9296875 C-230.72074493 376.71402016 -241.65206438 364.15247921 -248.25 350.4140625 C-252.13124012 341.62474932 -254.70859735 333.59944165 -254.74986267 323.96069336 C-254.76074388 323.18362754 -254.77162508 322.40656172 -254.78283602 321.60594845 C-254.81634591 319.02377205 -254.83593805 316.44169389 -254.85522461 313.859375 C-254.87596033 311.99927037 -254.8973656 310.1391731 -254.91938782 308.27908325 C-254.98703296 302.19266397 -255.03275753 296.10617853 -255.07421875 290.01953125 C-255.08146194 288.98245403 -255.08870512 287.94537682 -255.0961678 286.87687302 C-255.16331349 277.09154374 -255.22143326 267.30619353 -255.25969601 257.52070618 C-255.30923751 245.02163534 -255.40216484 232.52454131 -255.55360788 220.0262785 C-255.65662037 211.22608073 -255.70986056 202.42641854 -255.7263661 193.62563801 C-255.73757653 188.37296975 -255.77073197 183.1225843 -255.85749626 177.87057495 C-255.93806129 172.93165174 -255.95692732 167.99628353 -255.92886162 163.05681992 C-255.92924407 161.24751034 -255.9518012 159.43804514 -255.99846268 157.62933731 C-256.13163004 152.17702784 -256.07696969 147.31134558 -254.421875 142.08203125 C-250.48448722 138.16800082 -246.53043095 136.27537313 -241.421875 134.08203125 C-239.5382799 133.00250173 -237.66668815 131.90130601 -235.81640625 130.765625 C-233.95676018 129.68182274 -232.09605131 128.59984238 -230.234375 127.51953125 C-229.21537109 126.9265625 -228.19636719 126.33359375 -227.14648438 125.72265625 C-218.4903848 120.69040823 -209.81602473 115.68985772 -201.14038086 110.69140625 C-189.87558118 104.1982033 -178.64722677 97.64311969 -167.421875 91.08203125 C-154.01569619 83.24627459 -140.59266817 75.44165414 -127.13769531 67.68994141 C-115.8739025 61.19703247 -104.64634736 54.64260569 -93.421875 48.08203125 C-80.02448325 40.25141053 -66.6105576 32.45136602 -53.1640625 24.70532227 C-43.73358098 19.26961879 -34.32794405 13.79197222 -24.9296875 8.30078125 C-24.03668945 7.78386719 -23.14369141 7.26695313 -22.22363281 6.734375 C-20.21076987 5.54728399 -18.21733272 4.32702223 -16.23730469 3.0859375 C-15.18188477 2.43496094 -14.12646484 1.78398437 -13.0390625 1.11328125 C-12.08370605 0.51064453 -11.12834961 -0.09199219 -10.14404297 -0.71289062 C-6.18513533 -2.46546176 -3.89019769 -1.47451041 0 0 Z " fill="#ED5D71" transform="translate(264.421875,13.91796875)"/>
<path d="M0 0 C2.61626611 1.311958 4.53021188 2.67222849 6.671875 4.65234375 C7.661875 5.31234375 8.651875 5.97234375 9.671875 6.65234375 C10.05598775 9.26196475 10.27480697 11.65815115 10.359375 14.27734375 C10.39353516 14.98375 10.42769531 15.69015625 10.46289062 16.41796875 C10.54538808 18.16220063 10.61030835 19.9072477 10.671875 21.65234375 C13.02626497 20.26397318 15.38016683 18.87480295 17.73291016 17.48364258 C19.74327592 16.29891019 21.75732587 15.12040859 23.77490234 13.94799805 C28.31532297 11.29754114 32.78271727 8.64843992 37.05078125 5.57421875 C40.54237169 3.10626194 43.60160262 1.04854183 47.671875 -0.34765625 C52.72658043 0.726747 56.99183187 2.97230062 60.671875 6.65234375 C60.77642297 9.41143465 60.81519552 12.14571912 60.81231689 14.90550232 C60.81677358 16.21927143 60.81677358 16.21927143 60.8213203 17.55958134 C60.83004762 20.5181646 60.83151897 23.47670759 60.83300781 26.43530273 C60.83763336 28.5472777 60.84265765 30.65925183 60.84805298 32.77122498 C60.86120955 38.52785164 60.86762895 44.28446662 60.87206364 50.04110599 C60.87499079 53.63712202 60.87909504 57.23313483 60.88356781 60.82914925 C60.89725497 72.07812945 60.9069141 83.32710232 60.9107697 94.57609028 C60.91524534 107.56371263 60.93276518 120.55122946 60.9617703 133.53881973 C60.98340108 143.57288562 60.99347483 153.60692187 60.99481082 163.64101082 C60.99585839 169.63514477 61.00175537 175.6291797 61.01963043 181.62328911 C61.03613381 187.26786145 61.0382555 192.91226062 61.02949142 198.55684853 C61.02872211 200.62478983 61.03304979 202.69274052 61.04294968 204.76065826 C61.05570845 207.59275399 61.04977087 210.42424012 61.03936768 213.2563324 C61.05145228 214.47228384 61.05145228 214.47228384 61.06378102 215.71279997 C61.00436017 222.67131035 59.56177132 229.26991393 56.1484375 235.37890625 C52.21603527 238.98877707 47.68488978 241.42141835 43.046875 244.02734375 C41.98726563 244.63384766 40.92765625 245.24035156 39.8359375 245.86523438 C37.58918553 247.15078788 35.34009938 248.43226932 33.08886719 249.70996094 C27.60057704 252.8297692 22.13796313 255.99385747 16.671875 259.15234375 C14.48700659 260.41150592 12.30211079 261.67062057 10.1171875 262.9296875 C-0.05411087 268.79797942 -10.19011727 274.72679534 -20.328125 280.65234375 C-33.73430381 288.48810041 -47.15733183 296.29272086 -60.61230469 304.04443359 C-71.8760975 310.53734253 -83.10365264 317.09176931 -94.328125 323.65234375 C-107.73430381 331.48810041 -121.15733183 339.29272086 -134.61230469 347.04443359 C-141.90434897 351.24786491 -149.18407124 355.4717837 -156.453125 359.71484375 C-157.42378906 360.28122559 -158.39445312 360.84760742 -159.39453125 361.43115234 C-164.56113795 364.44757926 -169.72367464 367.4708164 -174.8828125 370.5 C-175.96159668 371.13220459 -177.04038086 371.76440918 -178.15185547 372.41577148 C-180.20682757 373.6201652 -182.26062014 374.82657469 -184.31298828 376.03540039 C-202.49751948 386.68517375 -202.49751948 386.68517375 -212.87109375 383.9921875 C-219.27511233 381.69865527 -224.24964513 378.11265659 -229.328125 373.65234375 C-229.93398437 373.14058594 -230.53984375 372.62882812 -231.1640625 372.1015625 C-242.32077387 361.92926684 -250.67736841 344.80994048 -251.55860329 329.70066071 C-251.55963918 328.29280101 -251.54977468 326.8849033 -251.53067017 325.47717285 C-251.52829546 324.6944625 -251.52592076 323.91175216 -251.5234741 323.10532331 C-251.51312597 320.50430968 -251.4882638 317.90364637 -251.46337891 315.30273438 C-251.45294414 313.42966167 -251.44341053 311.55658375 -251.43470764 309.6835022 C-251.40860967 304.61380086 -251.36994121 299.54426483 -251.32898378 294.47466469 C-251.28828323 289.17093831 -251.25918771 283.86714845 -251.22885132 278.56335449 C-251.16968565 268.52667081 -251.10011145 258.49008746 -251.02678049 248.45349836 C-250.94378283 237.02431679 -250.87241477 225.5950718 -250.80201459 214.16580677 C-250.65697469 190.66122585 -250.49735942 167.15676204 -250.328125 143.65234375 C-249.66622382 143.27864371 -249.00432264 142.90494368 -248.32236385 142.5199194 C-245.29602464 140.81104885 -242.26995844 139.10169543 -239.24389648 137.39233398 C-238.20264366 136.80446861 -237.16139084 136.21660324 -236.0885849 135.61092377 C-229.15886346 131.6958788 -222.25354751 127.74599034 -215.390625 123.71484375 C-213.37891861 122.5377393 -211.36719948 121.3606566 -209.35546875 120.18359375 C-208.3588623 119.59964844 -207.36225586 119.01570313 -206.33544922 118.4140625 C-201.37742749 115.50960684 -196.41574395 112.611436 -191.453125 109.71484375 C-189.97598022 108.85258179 -189.97598022 108.85258179 -188.46899414 107.97290039 C-180.00892154 103.03940298 -171.52581548 98.14632151 -163.03955078 93.25805664 C-154.80354984 88.51114752 -146.5894961 83.72761843 -138.38256836 78.93066406 C-130.90068768 74.56094506 -123.39897967 70.22639042 -115.890625 65.90234375 C-108.85205217 61.84858626 -101.82068439 57.78502102 -94.828125 53.65234375 C-87.83556149 49.51966405 -80.80399771 45.45645466 -73.765625 41.40234375 C-69.28597758 38.81984336 -64.80686919 36.23641023 -60.328125 33.65234375 C-59.24354004 33.02682617 -58.15895508 32.40130859 -57.04150391 31.75683594 C-42.87071166 23.62036248 -42.87071166 23.62036248 -29.015625 14.96484375 C-27.40104052 13.92732007 -25.78644485 12.88981356 -24.17138672 11.85302734 C-22.79524818 10.95662346 -21.42854872 10.04569795 -20.06689453 9.12744141 C-5.56817408 -0.58165199 -5.56817408 -0.58165199 0 0 Z " fill="#5793FA" transform="translate(441.328125,115.34765625)"/>
<path d="M0 0 C4.69470111 0.23473506 9.05656013 1.64391279 13.140625 3.92578125 C17.08742513 8.32861921 16.17687389 15.37541042 16 21 C19.52036925 18.97480401 23.04002677 16.94837685 26.55908203 14.92089844 C27.75160427 14.2340518 28.94430697 13.54751835 30.13720703 12.86132812 C31.87061441 11.86414507 33.60327791 10.8656693 35.3359375 9.8671875 C37.02928223 8.89604004 37.02928223 8.89604004 38.75683594 7.90527344 C40.83038149 6.68712006 42.88342512 5.43291051 44.90722656 4.13378906 C45.77573242 3.5765918 46.64423828 3.01939453 47.5390625 2.4453125 C48.28623535 1.94789551 49.0334082 1.45047852 49.80322266 0.93798828 C52.67504008 -0.28823116 54.00744128 0.1924134 57 1 C59.45703125 2.19140625 59.45703125 2.19140625 61.8125 3.5625 C62.60269531 4.01753906 63.39289063 4.47257812 64.20703125 4.94140625 C64.79871094 5.29074219 65.39039063 5.64007813 66 6 C66.20891563 13.84931146 66.36863196 21.69796729 66.46630955 29.54936409 C66.51320319 33.19569486 66.57674655 36.8401186 66.67895508 40.48535156 C66.77705619 44.00630133 66.83061652 47.52542289 66.85389519 51.04763412 C66.87851872 53.03897258 66.94873569 55.02957886 67.01966858 57.01980591 C67.02458979 65.85778919 67.02458979 65.85778919 64.13768005 69.07611084 C61.82411604 70.64516695 59.54286522 71.84646561 57 73 C56.000896 73.60585937 55.00179199 74.21171875 53.97241211 74.8359375 C53.08303955 75.34382813 52.19366699 75.85171875 51.27734375 76.375 C49.7466626 77.25297241 49.7466626 77.25297241 48.18505859 78.14868164 C47.11336426 78.7596167 46.04166992 79.37055176 44.9375 80 C43.20464797 80.99372957 41.47180149 81.98746909 39.73937988 82.98194885 C38.55979636 83.65906019 37.38002684 84.33584761 36.20007324 85.01231384 C30.40846642 88.33406215 24.63958566 91.69414356 18.875 95.0625 C17.89249268 95.63621338 16.90998535 96.20992676 15.89770508 96.80102539 C12.931475 98.53345561 9.96566518 100.26660296 7 102 C-6.40758718 109.83657983 -19.83159279 117.64278608 -33.28857422 125.39428711 C-40.53921986 129.57327594 -47.77472586 133.7773134 -55 138 C-63.31751792 142.8610296 -71.65205653 147.69141103 -80 152.5 C-91.3498298 159.038764 -102.67048331 165.62628757 -113.97949219 172.23535156 C-119.23468393 175.30555249 -124.49250535 178.37124491 -129.75 181.4375 C-131.64063661 182.54034468 -133.53126201 183.64320858 -135.421875 184.74609375 C-136.32357422 185.27058105 -137.22527344 185.79506836 -138.15429688 186.33544922 C-140.20768414 187.53654688 -142.25515481 188.74777947 -144.29882812 189.96533203 C-145.38099609 190.60712402 -146.46316406 191.24891602 -147.578125 191.91015625 C-148.5671582 192.50062744 -149.55619141 193.09109863 -150.57519531 193.69946289 C-153 195 -153 195 -155 195 C-154.99170386 195.8499888 -154.98340773 196.69997761 -154.97486019 197.57572365 C-154.77610829 218.25704065 -154.62717306 238.93819308 -154.53369045 259.62026405 C-154.48728112 269.6220288 -154.42400973 279.62315612 -154.32104492 289.62451172 C-154.23134372 298.34167827 -154.17327729 307.05838323 -154.15320355 315.77599847 C-154.14146874 320.39227906 -154.1138926 325.00723915 -154.04842949 329.62309647 C-153.98729768 333.96879366 -153.96850247 338.31262796 -153.98203087 342.65871429 C-153.97955652 344.25272884 -153.96167288 345.84680617 -153.92715073 347.44044876 C-153.67909362 359.48306392 -153.67909362 359.48306392 -156.94714642 363.23611355 C-159.2483921 364.79848361 -161.44232909 365.92194537 -164 367 C-165.19638254 367.69505176 -166.384129 368.40530589 -167.56030273 369.1340332 C-168.67348877 369.76656006 -169.7866748 370.39908691 -170.93359375 371.05078125 C-171.83961082 371.56719429 -171.83961082 371.56719429 -172.76393127 372.09403992 C-174.65338606 373.16994563 -176.54540657 374.241243 -178.4375 375.3125 C-179.72868106 376.0472354 -181.01969784 376.78225956 -182.31054688 377.51757812 C-191.27905667 382.6196024 -197.90377749 386.20348202 -208.51171875 383.31640625 C-222.97092328 377.23496072 -234.62907038 364.33670637 -240.81396484 350.13037109 C-244.16308076 341.7608078 -246.16060197 334.29547145 -246.10920715 325.28843689 C-246.10880029 324.51927918 -246.10839342 323.75012148 -246.10797423 322.95765597 C-246.10528023 320.38441589 -246.09527197 317.81125814 -246.08520508 315.23803711 C-246.08160839 313.39159718 -246.07840363 311.54515645 -246.07556152 309.69871521 C-246.06619573 304.68648109 -246.04986456 299.67429455 -246.03119111 294.6620872 C-246.01954774 291.53177708 -246.00888254 288.40146495 -245.99844933 285.27115059 C-245.96522615 275.47981598 -245.92717835 265.68851509 -245.88308412 255.89722341 C-245.83230171 244.58833814 -245.79809337 233.27955937 -245.77790338 221.97057909 C-245.76124202 213.23070916 -245.72939298 204.4909759 -245.68605727 195.75119787 C-245.66053406 190.52973944 -245.64162167 185.30845156 -245.63868141 180.08692741 C-245.63553591 175.17923598 -245.61361659 170.27198851 -245.57712555 165.3644352 C-245.56699087 163.56168522 -245.56368961 161.7588822 -245.56765556 159.95610809 C-245.57202704 157.49841766 -245.55198585 155.04210533 -245.52571106 152.58457947 C-245.53278936 151.86814315 -245.53986766 151.15170684 -245.54716045 150.41356033 C-245.48566454 147.05053694 -245.24087595 145.30514656 -243.12938976 142.63027287 C-240.65867268 140.73867787 -238.15152179 139.19000099 -235.43359375 137.671875 C-234.32242188 137.04539063 -233.21125 136.41890625 -232.06640625 135.7734375 C-231.18106201 135.2798877 -231.18106201 135.2798877 -230.27783203 134.77636719 C-227.10299013 133.00573368 -223.94069985 131.21292302 -220.77734375 129.421875 C-220.12675995 129.05412964 -219.47617615 128.68638428 -218.80587769 128.30749512 C-212.3152836 124.63024052 -205.90482581 120.82472308 -199.5 117 C-190.32293374 111.53021653 -181.09748567 106.15849714 -171.8125 100.875 C-160.1382599 94.23153897 -148.51837049 87.49998753 -136.92675781 80.71337891 C-122.55043686 72.29721103 -108.15029945 63.9239385 -93.71582031 55.60791016 C-83.4650895 49.69897142 -73.24448463 43.73915518 -63.02929688 37.76904297 C-59.85943002 35.91791021 -56.68775615 34.06990596 -53.515625 32.22265625 C-52.44586426 31.5994751 -51.37610352 30.97629395 -50.27392578 30.33422852 C-48.24651858 29.15327718 -46.21886847 27.97274273 -44.19091797 26.79272461 C-43.26424316 26.25268799 -42.33756836 25.71265137 -41.3828125 25.15625 C-40.49110352 24.63675781 -39.59939453 24.11726563 -38.68066406 23.58203125 C-35.08916673 21.46245905 -31.53716941 19.27957697 -27.99169922 17.08398438 C-26 16 -26 16 -24 16 C-24 15.34 -24 14.68 -24 14 C-23.30849854 13.61142822 -22.61699707 13.22285645 -21.90454102 12.82250977 C-18.78956569 11.07087689 -15.67601708 9.31672349 -12.5625 7.5625 C-11.47388672 6.95083984 -10.38527344 6.33917969 -9.26367188 5.70898438 C-8.22919922 5.12568359 -7.19472656 4.54238281 -6.12890625 3.94140625 C-5.17056885 3.40201416 -4.21223145 2.86262207 -3.22485352 2.30688477 C-1.10085689 1.18471061 -1.10085689 1.18471061 0 0 Z " fill="#FCBA62" transform="translate(346,64)"/>
<path d="M0 0 C0.67417969 0.24878906 1.34835937 0.49757812 2.04296875 0.75390625 C-1.40723163 3.68442439 -4.79098101 5.74426605 -8.828125 7.765625 C-15.74808127 11.75029148 -18.55431685 16.54278357 -22.01953125 23.56640625 C-23.19952706 25.79939181 -24.38183945 28.03115467 -25.56640625 30.26171875 C-26.42202148 31.90769043 -26.42202148 31.90769043 -27.29492188 33.58691406 C-29.66917433 38.11082752 -32.16998804 42.54379508 -34.76953125 46.94140625 C-35.36229858 48.00742065 -35.36229858 48.00742065 -35.96704102 49.0949707 C-39.27823775 54.66720898 -43.42112056 57.51853535 -48.95703125 60.75390625 C-49.79967529 61.26058838 -50.64231934 61.76727051 -51.51049805 62.28930664 C-54.29216055 63.94666816 -57.09056538 65.57208331 -59.89453125 67.19140625 C-60.93158203 67.79339844 -61.96863281 68.39539063 -63.03710938 69.015625 C-71.76082616 74.0752762 -80.49939388 79.10937782 -89.23754883 84.14404297 C-100.50277409 90.63723448 -111.73136651 97.19263488 -122.95703125 103.75390625 C-136.3493253 111.58154743 -149.75821261 119.37850821 -163.19946289 127.12182617 C-170.90176675 131.56155421 -178.59048611 136.02407234 -186.26953125 140.50390625 C-187.27177734 141.08849609 -188.27402344 141.67308594 -189.30664062 142.27539062 C-194.50227874 145.29960533 -194.50227874 145.29960533 -199.63354492 148.43066406 C-201.95703125 149.75390625 -201.95703125 149.75390625 -203.95703125 149.75390625 C-203.95426587 150.70089417 -203.95150049 151.6478821 -203.94865131 152.62356663 C-203.8820492 175.66710169 -203.83275232 198.71062428 -203.80159473 221.75423527 C-203.78612663 232.89795922 -203.76503812 244.04161959 -203.73071289 255.18530273 C-203.70080889 264.89826562 -203.68145584 274.61118244 -203.67476577 284.32419008 C-203.67085522 289.46703476 -203.66166595 294.60974768 -203.63984108 299.75255013 C-203.61946019 304.59437758 -203.61320073 309.43601916 -203.61770821 314.27788544 C-203.61688373 316.05360614 -203.61092764 317.82933314 -203.59941483 319.60501671 C-203.5844455 322.03317457 -203.58809359 324.46063452 -203.5962677 326.8888092 C-203.58752918 327.58824475 -203.57879065 328.28768029 -203.56978732 329.00831085 C-203.61505469 333.997721 -204.79783737 337.35729268 -206.95703125 341.75390625 C-212.59240105 341.75390625 -214.44362547 339.18931757 -218.42578125 335.44140625 C-228.07949961 325.19177935 -234.08761077 311.73378684 -234.07728577 297.66081238 C-234.07814019 296.9582528 -234.07899462 296.25569322 -234.07987493 295.53184396 C-234.08151842 293.1842077 -234.07602692 290.83664332 -234.07055664 288.48901367 C-234.0702745 286.80356854 -234.07043303 285.11812328 -234.07099915 283.43267822 C-234.07128607 278.86079529 -234.0654063 274.28893859 -234.05842519 269.71706176 C-234.05217417 264.93778475 -234.05158646 260.15850715 -234.05039978 255.37922668 C-234.04729163 246.33060775 -234.03908518 237.2820009 -234.02905029 228.23338729 C-234.01787315 217.93117154 -234.01237466 207.62895521 -234.00735486 197.3267349 C-233.99690215 176.13578527 -233.97931267 154.94484652 -233.95703125 133.75390625 C-233.44403788 133.4695509 -232.9310445 133.18519554 -232.40250587 132.89222336 C-230.04881786 131.58718381 -227.69554891 130.28139035 -225.34228516 128.97558594 C-224.53541763 128.52835175 -223.72855011 128.08111755 -222.89723206 127.62033081 C-216.66154747 124.15916619 -210.48007841 120.61875572 -204.33203125 117.00390625 C-202.27475646 115.79945035 -200.21746429 114.59502412 -198.16015625 113.390625 C-197.13212891 112.78782715 -196.10410156 112.1850293 -195.04492188 111.56396484 C-190.06068125 108.64230451 -185.07183022 105.72856113 -180.08203125 102.81640625 C-178.60549072 101.95450684 -178.60549072 101.95450684 -177.09912109 101.07519531 C-168.64007477 96.14223856 -160.15773763 91.25015026 -151.67285156 86.36181641 C-140.40905875 79.86890747 -129.18150361 73.31448069 -117.95703125 66.75390625 C-104.55085244 58.91814959 -91.12782442 51.11352914 -77.67285156 43.36181641 C-67.41189255 37.44698172 -57.18101454 31.48132617 -46.95556641 25.50537109 C-43.87765526 23.7075422 -40.79841096 21.91201717 -37.71875 20.1171875 C-36.68999756 19.51729004 -35.66124512 18.91739258 -34.60131836 18.29931641 C-32.57060143 17.11624643 -30.53888581 15.93488878 -28.50610352 14.75537109 C-23.92179408 12.09105771 -19.35937214 9.4029509 -14.84765625 6.6171875 C-14.0683374 6.14120117 -13.28901855 5.66521484 -12.48608398 5.17480469 C-11.0560995 4.29844896 -9.63309341 3.41055304 -8.21899414 2.50878906 C-5.26366337 0.70754593 -3.50714704 -0.29187617 0 0 Z " fill="#FDFDFE" transform="translate(445.95703125,139.24609375)"/>
<path d="M0 0 C0.99 0.33 1.98 0.66 3 1 C-0.12644892 4.66549183 -2.82280736 6.41790937 -7.23046875 8.3828125 C-14.35034349 12.20580809 -16.98823133 17.70555059 -20.5 24.75 C-21.1489731 25.97087027 -21.80243776 27.1893628 -22.46020508 28.40551758 C-25.2622598 33.6084801 -27.94976105 38.84336532 -30.41796875 44.21484375 C-37.06955665 57.83358998 -48.58912259 63.51626337 -61.54322815 70.16583252 C-67.537068 73.24306981 -73.33187563 76.62346868 -79.125 80.0625 C-81.08890402 81.21384403 -83.05375222 82.36357901 -85.01953125 83.51171875 C-85.99744629 84.08325684 -86.97536133 84.65479492 -87.98291016 85.24365234 C-93.24741641 88.30829533 -98.53151761 91.33887033 -103.8125 94.375 C-112.70905577 99.49271117 -121.55646964 104.68657657 -130.375 109.9375 C-140.74654817 116.11086176 -151.18926663 122.14333416 -161.67944336 128.11181641 C-169.62507829 132.63472491 -177.54236072 137.20201435 -185.4375 141.8125 C-186.43225342 142.39338379 -187.42700684 142.97426758 -188.4519043 143.57275391 C-190.96978757 145.04542413 -193.48737726 146.51837263 -196 148 C-196.86021444 148.37183002 -197.72042889 148.74366003 -198.60671043 149.12675762 C-201.33769132 150.84163175 -201.33769132 150.84163175 -201.62247658 154.24159718 C-201.64697518 155.60874719 -201.6436456 156.97655597 -201.61904907 158.34370422 C-201.62528805 159.09749129 -201.63152703 159.85127836 -201.63795507 160.62790745 C-201.65291458 163.16172859 -201.63220176 165.69401798 -201.61181641 168.2277832 C-201.61535616 170.0411331 -201.62113206 171.85447981 -201.62898254 173.66781616 C-201.64118074 177.57704176 -201.63767182 181.48583136 -201.62215042 185.39504433 C-201.59788398 191.57616663 -201.60930863 197.75690522 -201.62582397 203.93803406 C-201.65034567 214.83048812 -201.64450995 225.72276864 -201.63201904 236.61523438 C-201.61345479 253.00563659 -201.61827402 269.39600551 -201.65205324 285.78638333 C-201.66357202 291.9307018 -201.6591211 298.07474229 -201.64203286 304.21904528 C-201.63413431 308.04338012 -201.63838711 311.86763408 -201.64574242 315.69196701 C-201.64655262 317.46488038 -201.64220325 319.2378048 -201.63229942 321.01069069 C-201.6194261 323.43247611 -201.62495926 325.85356124 -201.63491821 328.27534485 C-201.62666004 328.97564688 -201.61840186 329.6759489 -201.60989344 330.3974722 C-201.6543871 334.96705763 -202.51814796 338.15394731 -205 342 C-208 343 -208 343 -209.7265625 342.20703125 C-221.20441547 333.77576889 -229.68968248 320.12899712 -232 306 C-232.13247268 303.66684081 -232.21617439 301.3307204 -232.26829529 298.99438477 C-232.28467216 298.30099754 -232.30104903 297.60761032 -232.31792217 296.89321136 C-232.37096598 294.57602135 -232.41703827 292.25875378 -232.46264648 289.94140625 C-232.49839252 288.27705175 -232.53423792 286.61269938 -232.57017517 284.948349 C-232.88709021 269.75905008 -233.07320517 254.56778723 -233.22199917 239.37600708 C-233.3243569 229.17026742 -233.46815575 218.9685036 -233.71459961 208.76513672 C-233.92984574 199.85148806 -234.06684263 190.94063538 -234.11061722 182.02443409 C-234.13634477 177.30967002 -234.19967796 172.6025407 -234.35662651 167.89016724 C-235.27131773 139.29062524 -235.27131773 139.29062524 -229.84508705 132.1736393 C-224.68352157 127.69450888 -219.01143545 125.102973 -212.58420753 122.92096233 C-209.10730832 121.68186169 -206.23671004 119.96643666 -203.11328125 118.01171875 C-201.18016819 116.90280745 -199.24658001 115.79472396 -197.3125 114.6875 C-188.37265838 109.55148914 -179.48312063 104.33810309 -170.625 99.0625 C-160.23968199 92.88079891 -149.78238728 86.84146648 -139.27880859 80.86401367 C-128.78334836 74.88975209 -118.34852473 68.81507116 -107.92675781 62.71337891 C-93.55043686 54.29721103 -79.15029945 45.9239385 -64.71582031 37.60791016 C-54.46966641 31.70160974 -44.25329037 25.74496924 -34.04248047 19.77783203 C-28.67529872 16.64159246 -23.30645978 13.50819442 -17.9375 10.375 C-16.44742432 9.50476196 -16.44742432 9.50476196 -14.92724609 8.61694336 C-13.0964192 7.54840965 -11.26385819 6.48283905 -9.42919922 5.42089844 C-7.89907785 4.52589277 -6.37825625 3.6146016 -4.87158203 2.68066406 C-3.29013888 1.71401985 -1.64956551 0.845161 0 0 Z " fill="#FEFDFD" transform="translate(264,35)"/>
<path d="M0 0 C0.96486328 0.40412109 0.96486328 0.40412109 1.94921875 0.81640625 C-1.49994092 3.74609989 -4.88160267 5.80439571 -8.91796875 7.82421875 C-15.85621085 11.8189642 -18.69169165 16.65303478 -22.17578125 23.69140625 C-23.35429554 25.92379683 -24.53398879 28.15556541 -25.71484375 30.38671875 C-26.27848633 31.47758789 -26.84212891 32.56845703 -27.42285156 33.69238281 C-29.69230332 38.0474975 -32.08879992 42.31788821 -34.55078125 46.56640625 C-34.92348145 47.23784668 -35.29618164 47.90928711 -35.68017578 48.60107422 C-40.62623593 57.16966341 -48.52996522 61.01337793 -56.92578125 65.75390625 C-58.08893919 66.41662049 -59.2516929 67.08004465 -60.4140625 67.74414062 C-62.20298292 68.76618333 -63.99209267 69.78786988 -65.78240967 70.8074646 C-71.56369806 74.10085422 -77.30922346 77.45428897 -83.05078125 80.81640625 C-91.36784183 85.67821235 -99.70284336 90.5078205 -108.05078125 95.31640625 C-120.41100643 102.43727033 -132.73545452 109.61824003 -145.05078125 116.81640625 C-149.00863599 119.12972663 -152.96690114 121.44234102 -156.92578125 123.75390625 C-157.89918457 124.32238281 -158.87258789 124.89085937 -159.87548828 125.4765625 C-165.26112452 128.6181101 -170.65475924 131.74533252 -176.05859375 134.85546875 C-176.64397919 135.1925032 -177.22936462 135.52953766 -177.83248901 135.87678528 C-180.66163846 137.5052774 -183.49187632 139.13183015 -186.32373047 140.75561523 C-187.85924561 141.63842163 -187.85924561 141.63842163 -189.42578125 142.5390625 C-190.32039063 143.05218994 -191.215 143.56531738 -192.13671875 144.09399414 C-193.09835938 144.66239014 -194.06 145.23078613 -195.05078125 145.81640625 C-196.04132271 146.13731861 -196.04132271 146.13731861 -197.05187511 146.46471405 C-199.76655423 147.5759366 -201.17527825 148.53337049 -203.05078125 150.81640625 C-204.30314345 156.60575773 -204.08913017 162.3723294 -204.00317383 168.27124023 C-204.00586887 170.08488803 -204.01212225 171.89853352 -204.02166748 173.7121582 C-204.03453095 177.61617427 -204.02213197 181.51900677 -203.99012184 185.42291069 C-203.93957472 191.59588374 -203.94447284 197.76805548 -203.95671082 203.94117737 C-203.96937776 213.70533324 -203.94392789 223.46896732 -203.90269059 233.23303038 C-203.82985839 250.71666143 -203.81682261 268.20036535 -203.82484549 285.68413025 C-203.82609126 291.82014851 -203.80915647 297.9557747 -203.77719748 304.09170711 C-203.75973462 307.90946079 -203.75419091 311.7271703 -203.75140381 315.54496002 C-203.74742445 317.31466454 -203.73824114 319.08436622 -203.72345543 320.85401344 C-203.70384973 323.27127472 -203.70268644 325.68788632 -203.70588684 328.10520935 C-203.69043004 329.15361603 -203.69043004 329.15361603 -203.67466098 330.22320265 C-203.706373 334.80365857 -204.74055234 337.8816803 -207.05078125 341.81640625 C-212.19258304 341.81640625 -213.34567961 340.28951557 -216.96875 336.921875 C-230.77840945 322.95675973 -234.3253279 307.39985004 -234.48413086 288.4296875 C-234.50487128 286.76662388 -234.52627671 285.10356844 -234.54829407 283.44052124 C-234.615882 278.00342558 -234.66165531 272.56625643 -234.703125 267.12890625 C-234.71036819 266.20204136 -234.71761137 265.27517647 -234.72507405 264.32022476 C-234.79221444 255.57291987 -234.85032522 246.82559135 -234.88860226 238.07810974 C-234.93814169 226.91019079 -235.03107341 215.74448443 -235.18251413 204.57746983 C-235.2855622 196.71144893 -235.33877139 188.84602717 -235.35527235 180.9793539 C-235.3664771 176.28548149 -235.39957436 171.59416543 -235.48640251 166.90103149 C-235.5670355 162.48728581 -235.58581552 158.07751762 -235.55776787 153.66316605 C-235.55814997 152.04734553 -235.58066598 150.43134955 -235.62736893 148.81620407 C-235.76131685 143.92275182 -235.67008047 139.50174469 -234.05078125 134.81640625 C-230.10159652 131.03720195 -226.04290586 129.06003363 -221.05078125 126.81640625 C-219.00064515 125.64775 -216.9607501 124.46070252 -214.9375 123.24609375 C-212.8720885 122.0594648 -210.80565244 120.87461768 -208.73828125 119.69140625 C-206.45285027 118.37808213 -204.16770025 117.06426898 -201.8828125 115.75 C-200.17085693 114.76555908 -200.17085693 114.76555908 -198.42431641 113.76123047 C-193.24756992 110.77686497 -188.08552366 107.76754981 -182.92578125 104.75390625 C-181.94295166 104.18003174 -180.96012207 103.60615723 -179.94750977 103.01489258 C-176.98162897 101.28258453 -174.01613284 99.54962 -171.05078125 97.81640625 C-157.64460244 89.98064959 -144.22157442 82.17602914 -130.76660156 74.42431641 C-119.50280875 67.93140747 -108.27525361 61.37698069 -97.05078125 54.81640625 C-84.73545219 47.61823867 -72.41082612 40.43758618 -60.05078125 33.31640625 C-51.58323938 28.43633516 -43.1219449 23.54589932 -34.67578125 18.62890625 C-33.69697998 18.06099365 -32.71817871 17.49308105 -31.7097168 16.90795898 C-26.85788803 14.08235579 -22.04511033 11.21011163 -17.28125 8.23828125 C-16.36714355 7.67262451 -15.45303711 7.10696777 -14.51123047 6.52416992 C-12.79263511 5.45634638 -11.08147507 4.37642634 -9.37939453 3.2824707 C-3.72105299 -0.22393021 -3.72105299 -0.22393021 0 0 Z " fill="#FEFEFD" transform="translate(356.05078125,87.18359375)"/>
<path d="M0 0 C1.19882812 0.45439453 1.19882812 0.45439453 2.421875 0.91796875 C5.14351049 2.40208206 6.92794235 3.67043229 9 6 C9.63378906 9.43481445 9.63378906 9.43481445 9.765625 13.23828125 C9.82008789 14.50325439 9.87455078 15.76822754 9.93066406 17.0715332 C9.96498535 18.52112427 9.96498535 18.52112427 10 20 C13.84237214 17.81505397 17.68345999 15.62787123 21.5234375 13.4387207 C22.8264829 12.69626166 24.12986086 11.95438593 25.43359375 11.21313477 C27.32121826 10.13976546 29.20754341 9.06413981 31.09375 7.98828125 C31.70444336 7.64185577 32.31513672 7.2954303 32.94433594 6.93850708 C36.25302195 5.04944908 39.44318152 3.0580753 42.59375 0.91796875 C46 -1 46 -1 48.69921875 -0.97265625 C51.17586062 0.07434515 53.48778053 1.20930509 55.8125 2.5625 C56.60269531 3.01753906 57.39289063 3.47257812 58.20703125 3.94140625 C58.79871094 4.29074219 59.39039063 4.64007813 60 5 C57.14799957 8.07526941 54.34077221 10.1541877 50.6953125 12.21484375 C49.64714355 12.81256592 48.59897461 13.41028809 47.51904297 14.02612305 C46.39900879 14.65687744 45.27897461 15.28763184 44.125 15.9375 C41.7744999 17.27334014 39.42643803 18.61344491 37.078125 19.953125 C36.18920059 20.4589637 36.18920059 20.4589637 35.28231812 20.97502136 C28.53607912 24.81984222 21.86699369 28.79398447 15.20751953 32.78686523 C13.57128324 33.76174854 11.92917598 34.72687254 10.28027344 35.68017578 C8.7790251 36.5490996 7.29187839 37.44293308 5.82128906 38.36279297 C3.87074621 39.5005327 2.1813635 40.41632517 0 41 C-3.1875 39.859375 -3.1875 39.859375 -6 37.75 C-6.94875 37.06421875 -7.8975 36.3784375 -8.875 35.671875 C-9.57625 35.12015625 -10.2775 34.5684375 -11 34 C-7.7019185 31.26645497 -4.38112579 28.91692713 -0.6875 26.75 C0.19550781 26.22921875 1.07851563 25.7084375 1.98828125 25.171875 C2.65214844 24.78515625 3.31601562 24.3984375 4 24 C3.34 23.67 2.68 23.34 2 23 C-0.56582946 24.16004511 -0.56582946 24.16004511 -3.4765625 25.91015625 C-4.6099707 26.56322754 -5.74337891 27.21629883 -6.91113281 27.88916016 C-8.14919803 28.61341965 -9.38715094 29.33787114 -10.625 30.0625 C-11.89902365 30.8006417 -13.17344225 31.53810214 -14.44824219 32.27490234 C-17.69182966 34.15228489 -20.929779 36.03915359 -24.16589355 37.92938232 C-26.89211093 39.52074935 -29.62201301 41.10576321 -32.3515625 42.69140625 C-37.26347513 45.54849941 -42.16947064 48.41558156 -47.07324219 51.28662109 C-61.44956314 59.70278897 -75.84970055 68.0760615 -90.28417969 76.39208984 C-101.5479725 82.88499878 -112.77552764 89.43942556 -124 96 C-137.40617881 103.83575666 -150.82920683 111.64037711 -164.28417969 119.39208984 C-174.53033359 125.29839026 -184.74670963 131.25503076 -194.95751953 137.22216797 C-200.32470128 140.35840754 -205.69354022 143.49180558 -211.0625 146.625 C-212.05588379 147.20515869 -213.04926758 147.78531738 -214.07275391 148.38305664 C-215.47726807 149.20277954 -215.47726807 149.20277954 -216.91015625 150.0390625 C-218.13424194 150.75376709 -218.13424194 150.75376709 -219.38305664 151.48291016 C-222.58048241 153.33651625 -225.79053078 155.16732184 -229 157 C-229.09361483 179.07107012 -229.16406308 201.14210731 -229.20724869 223.21333599 C-229.22783722 233.46236004 -229.25588665 243.71126042 -229.30175781 253.96020508 C-229.34173941 262.89754235 -229.36745974 271.83479001 -229.37635398 280.77221423 C-229.38154961 285.50059121 -229.39368325 290.22871194 -229.42292023 294.95700645 C-229.45026861 299.41641658 -229.45840616 303.87546728 -229.45243073 308.33495331 C-229.45352234 309.96303327 -229.46135981 311.59112648 -229.4768219 313.21913338 C-229.6261274 329.76483435 -225.61635009 343.06472393 -215.625 356.375 C-212.12578879 359.87421121 -208.20354923 362.41742727 -204 365 C-206.70289908 367.70289908 -208.76697952 367.82312821 -212.49609375 368.15234375 C-219.28231119 367.73945377 -224.90267185 362.79762902 -229.37109375 358.0078125 C-239.48239553 345.54448129 -240.44031971 333.15179946 -240.34057617 317.69873047 C-240.33972885 315.85491449 -240.34020709 314.0110975 -240.34190369 312.1672821 C-240.34276097 307.18653839 -240.32517859 302.20601343 -240.30418181 297.22532034 C-240.28537033 292.01099361 -240.28366105 286.79666133 -240.28010559 281.58230591 C-240.27079824 271.71924392 -240.24620221 261.85628223 -240.21605712 251.99326432 C-240.18247229 240.75988665 -240.16601684 229.52650408 -240.15097082 218.29308867 C-240.11965148 195.19533694 -240.06691652 172.0976741 -240 149 C-241.13501953 148.55527344 -241.13501953 148.55527344 -242.29296875 148.1015625 C-245.28156056 146.88542557 -248.12856041 145.46910863 -251 144 C-251 143.34 -251 142.68 -251 142 C-249.20947266 140.72583008 -249.20947266 140.72583008 -246.6640625 139.26953125 C-245.2409375 138.44775391 -245.2409375 138.44775391 -243.7890625 137.609375 C-242.74492187 137.01640625 -241.70078125 136.4234375 -240.625 135.8125 C-239.54734375 135.19246094 -238.4696875 134.57242188 -237.359375 133.93359375 C-235.06844419 132.61617626 -232.77623731 131.30136492 -230.48144531 129.99072266 C-226.05680914 127.46286537 -221.644439 124.91383619 -217.23144531 122.36572266 C-215.06204669 121.11318834 -212.89211721 119.86157305 -210.72167969 118.61083984 C-199.45533361 112.11799927 -188.22635017 105.561672 -177 99 C-173.04214526 96.68667962 -169.08389337 94.37404251 -165.125 92.0625 C-164.13781982 91.48604736 -163.15063965 90.90959473 -162.13354492 90.31567383 C-154.83388651 86.05798345 -147.51299394 81.83803948 -140.1875 77.625 C-131.29102939 72.50713788 -122.44353286 67.31342492 -113.625 62.0625 C-103.23961775 55.88090391 -92.78238963 49.84146782 -82.27880859 43.86401367 C-71.79360566 37.89559078 -61.36902508 31.82681261 -50.95751953 25.73095703 C-47.91941135 23.95283362 -44.87991156 22.17711454 -41.83984375 20.40234375 C-40.82027588 19.80703857 -39.80070801 19.2117334 -38.75024414 18.59838867 C-36.73096281 17.42094404 -34.71064007 16.24528331 -32.68920898 15.0715332 C-27.91723082 12.29911312 -23.16362524 9.50357269 -18.4453125 6.640625 C-17.57688721 6.12008545 -16.70846191 5.5995459 -15.8137207 5.06323242 C-14.19311005 4.09086603 -12.57914513 3.10730102 -10.97338867 2.1105957 C-4.42392898 -1.79081859 -4.42392898 -1.79081859 0 0 Z " fill="#EC5D71" transform="translate(262,13)"/>
<path d="M0 0 C4.69470111 0.23473506 9.05656013 1.64391279 13.140625 3.92578125 C17.08742513 8.32861921 16.17687389 15.37541042 16 21 C19.52036925 18.97480401 23.04002677 16.94837685 26.55908203 14.92089844 C27.75160427 14.2340518 28.94430697 13.54751835 30.13720703 12.86132812 C31.87061441 11.86414507 33.60327791 10.8656693 35.3359375 9.8671875 C37.02928223 8.89604004 37.02928223 8.89604004 38.75683594 7.90527344 C40.83038149 6.68712006 42.88342512 5.43291051 44.90722656 4.13378906 C45.77573242 3.5765918 46.64423828 3.01939453 47.5390625 2.4453125 C48.28623535 1.94789551 49.0334082 1.45047852 49.80322266 0.93798828 C52.62473486 -0.26675165 54.10593348 0.11366052 57 1 C59.45703125 2.19140625 59.45703125 2.19140625 61.8125 3.5625 C62.60269531 4.01753906 63.39289063 4.47257812 64.20703125 4.94140625 C64.79871094 5.29074219 65.39039063 5.64007813 66 6 C63.36705311 8.80518876 60.89818288 10.82702147 57.52734375 12.671875 C56.19654785 13.40990356 56.19654785 13.40990356 54.83886719 14.1628418 C53.88141602 14.686604 52.92396484 15.21036621 51.9375 15.75 C42.62325953 20.92533235 33.4092172 26.24443187 24.25 31.6875 C23.65742401 32.03897095 23.06484802 32.39044189 22.45431519 32.75256348 C15.65381239 36.75898773 15.65381239 36.75898773 9 41 C3.3688087 40.86904206 -0.50983731 38.08841139 -5 35 C-1.00255759 31.53554991 3.34102615 28.9279507 7.890625 26.26953125 C9.91180486 25.1686003 9.91180486 25.1686003 11 24 C6.83414554 24.59566537 3.85980498 26.00269505 0.23046875 28.10546875 C-0.89311035 28.75201416 -2.01668945 29.39855957 -3.17431641 30.06469727 C-4.38714046 30.77213329 -5.59986584 31.47973851 -6.8125 32.1875 C-8.07437253 32.91716408 -9.33658429 33.64624177 -10.59912109 34.37475586 C-14.40487868 36.5738255 -18.20285646 38.78610095 -22 41 C-23.06943848 41.62229492 -24.13887695 42.24458984 -25.24072266 42.88574219 C-30.16659652 45.75248484 -35.08849743 48.62592576 -40.0078125 51.50390625 C-46.32376418 55.19497923 -52.66076055 58.84910943 -59 62.5 C-71.36028524 69.62075886 -83.68467405 76.80183424 -96 84 C-109.40617881 91.83575666 -122.82920683 99.64037711 -136.28417969 107.39208984 C-147.5479725 113.88499878 -158.77552764 120.43942556 -170 127 C-173.95785474 129.31332038 -177.9161085 131.62595428 -181.875 133.9375 C-182.84477783 134.50380127 -183.81455566 135.07010254 -184.8137207 135.65356445 C-190.26217369 138.83149295 -195.7183362 141.99561959 -201.18359375 145.14453125 C-201.78081238 145.48866562 -202.37803101 145.83279999 -202.99334717 146.18736267 C-205.89867793 147.86098914 -208.80498473 149.53287989 -211.71240234 151.20288086 C-212.75219238 151.80108643 -213.79198242 152.39929199 -214.86328125 153.015625 C-215.78407471 153.54446289 -216.70486816 154.07330078 -217.65356445 154.61816406 C-219.47062767 155.68824811 -221.24541946 156.83027964 -223 158 C-223.46144916 161.00136011 -223.46144916 161.00136011 -223.38768005 164.60688782 C-223.39306559 165.29362821 -223.39845113 165.98036861 -223.40399987 166.68791932 C-223.41836493 169.00086608 -223.41115474 171.31324735 -223.40405273 173.6262207 C-223.40975241 175.28028323 -223.41671509 176.93434182 -223.42485046 178.58839417 C-223.44285602 183.09319345 -223.44159794 187.5977987 -223.43590808 192.10262322 C-223.43282235 195.8667848 -223.43890285 199.63090877 -223.44494683 203.39506501 C-223.45901893 212.28627612 -223.45741265 221.17739124 -223.44604492 230.06860352 C-223.43460158 239.22071352 -223.44856925 248.37252918 -223.4754414 257.52460033 C-223.49766725 265.39061709 -223.50421912 273.25654196 -223.49836498 281.12258786 C-223.4950057 285.81624105 -223.49733985 290.50970627 -223.51461601 295.2033329 C-223.53018948 299.62835149 -223.52601542 304.0529393 -223.50731087 308.47794151 C-223.50365143 310.09310199 -223.50665525 311.70829507 -223.51719666 313.32342529 C-223.63550209 332.96709494 -217.79407167 347.90164734 -204 362 C-203.443125 362.57234375 -202.88625 363.1446875 -202.3125 363.734375 C-201.22232965 364.83693365 -200.11420577 365.92173635 -199 367 C-202.78896891 368.89448446 -206.88223536 368.60763576 -211 368 C-221.23747052 363.51075322 -227.93695234 354.08914082 -232 344 C-233.68039454 338.94707192 -234.26881902 334.4230141 -234.17321777 329.13731384 C-234.16787097 328.37602552 -234.16252416 327.61473721 -234.15701532 326.83037955 C-234.13699499 324.29550699 -234.10256727 321.76103598 -234.06835938 319.22631836 C-234.05141358 317.4025411 -234.03551028 315.57875389 -234.02056885 313.75495911 C-233.98719642 309.8355211 -233.94834976 305.91618844 -233.9058075 301.99683952 C-233.84047923 295.79880203 -233.79913686 289.60075108 -233.76330566 283.40248108 C-233.75713274 282.35547639 -233.75095981 281.30847171 -233.74459982 280.22973961 C-233.73198489 278.08937539 -233.71940539 275.94901095 -233.70686054 273.80864632 C-233.62088146 259.38401971 -233.51701185 244.95988132 -233.35546875 230.53588867 C-233.24658608 220.79729044 -233.1731442 211.05912959 -233.14045572 201.31996828 C-233.12169725 196.16821905 -233.08453254 191.01804689 -233.00382996 185.86686516 C-232.92817814 181.02453285 -232.8990118 176.18415849 -232.90550995 171.34126091 C-232.89956552 169.56497835 -232.87644735 167.78865737 -232.83486176 166.01285172 C-232.26047282 156.57996669 -232.26047282 156.57996669 -236.3006134 148.58371162 C-238.83667827 147.03874375 -241.17891932 145.90879521 -244 145 C-242.73707574 141.21122721 -241.65511028 140.96710351 -238.20703125 139.1015625 C-237.19584229 138.54670166 -236.18465332 137.99184082 -235.14282227 137.42016602 C-233.49431274 136.53155884 -233.49431274 136.53155884 -231.8125 135.625 C-229.50402112 134.35762883 -227.19674976 133.08805597 -224.890625 131.81640625 C-224.01417076 131.33448067 -224.01417076 131.33448067 -223.12001038 130.84281921 C-217.7025121 127.85639037 -212.37403116 124.73248323 -207.0625 121.5625 C-199.11885657 116.83274671 -191.13835638 112.17321641 -183.125 107.5625 C-174.69474063 102.71054321 -166.27482331 97.84198399 -157.875 92.9375 C-156.39966797 92.07608398 -156.39966797 92.07608398 -154.89453125 91.19726562 C-151.92940104 89.46533346 -148.96462837 87.73279104 -146 86 C-142.04214526 83.68667962 -138.08389337 81.37404251 -134.125 79.0625 C-133.13781982 78.48604736 -132.15063965 77.90959473 -131.13354492 77.31567383 C-123.83388651 73.05798345 -116.51299394 68.83803948 -109.1875 64.625 C-100.29103215 59.50713946 -91.4434306 54.31359394 -82.625 49.0625 C-72.04971922 42.76539749 -61.39664211 36.62090345 -50.69433594 30.54321289 C-43.21328532 26.28853887 -35.81005339 21.93555267 -28.4921875 17.40625 C-26 16 -26 16 -24 16 C-24 15.34 -24 14.68 -24 14 C-23.30849854 13.61142822 -22.61699707 13.22285645 -21.90454102 12.82250977 C-18.78956569 11.07087689 -15.67601708 9.31672349 -12.5625 7.5625 C-11.47388672 6.95083984 -10.38527344 6.33917969 -9.26367188 5.70898438 C-8.22919922 5.12568359 -7.19472656 4.54238281 -6.12890625 3.94140625 C-5.17056885 3.40201416 -4.21223145 2.86262207 -3.22485352 2.30688477 C-1.10085689 1.18471061 -1.10085689 1.18471061 0 0 Z " fill="#FDBB62" transform="translate(346,64)"/>
<path d="M0 0 C2.5952436 1.32246581 4.52028831 2.69283021 6.65234375 4.6640625 C7.64234375 5.3240625 8.63234375 5.9840625 9.65234375 6.6640625 C9.87342162 9.4525914 9.9334191 12.01059431 9.83984375 14.7890625 C9.82630859 15.54316406 9.81277344 16.29726562 9.79882812 17.07421875 C9.7634436 18.93780377 9.70963542 20.80102228 9.65234375 22.6640625 C7.30211178 24.01996556 5.56271961 24.67610238 2.84814453 25.04077148 C-0.64252278 25.72157161 -2.83061446 26.85040284 -5.85546875 28.69921875 C-7.43751099 29.65368896 -7.43751099 29.65368896 -9.05151367 30.62744141 C-9.88590469 31.13951141 -9.88590469 31.13951141 -10.7371521 31.66192627 C-13.73993977 33.50397116 -16.76206971 35.31390313 -19.78125 37.12890625 C-20.40576553 37.50551392 -21.03028107 37.88212158 -21.67372131 38.2701416 C-28.23311679 42.21761034 -34.8776785 46.01020275 -41.53515625 49.7890625 C-53.21131549 56.42910831 -64.82932984 63.16410078 -76.42089844 69.95068359 C-90.79721939 78.36685147 -105.1973568 86.740124 -119.63183594 95.05615234 C-130.89562875 101.54906128 -142.12318389 108.10348806 -153.34765625 114.6640625 C-166.73732619 122.49016991 -180.13983531 130.29229346 -193.58349609 138.02539062 C-199.15500865 141.23315469 -204.71446641 144.45981549 -210.25390625 147.72265625 C-211.36121094 148.37363281 -212.46851563 149.02460938 -213.609375 149.6953125 C-215.72874999 150.94290598 -217.84602738 152.19407134 -219.9609375 153.44921875 C-220.90324219 154.00351562 -221.84554687 154.5578125 -222.81640625 155.12890625 C-224.06067383 155.86548462 -224.06067383 155.86548462 -225.33007812 156.61694336 C-227.34765625 157.6640625 -227.34765625 157.6640625 -229.34765625 157.6640625 C-229.31042102 179.73527494 -229.25045959 201.80632277 -229.16375351 223.87739849 C-229.12401518 234.12635738 -229.09159628 244.37524006 -229.07666016 254.62426758 C-229.06361661 263.56169153 -229.03658317 272.49894744 -228.99304318 281.43627673 C-228.97048904 286.16459022 -228.95474193 290.89269691 -228.9557724 295.62106895 C-228.9565226 300.08057597 -228.93842845 304.53962691 -228.90648842 308.99901581 C-228.89803857 310.62705464 -228.8962057 312.25514492 -228.90185356 313.88319588 C-228.96099762 333.56923387 -223.18130204 348.52526276 -209.34765625 362.6640625 C-208.79078125 363.23640625 -208.23390625 363.80875 -207.66015625 364.3984375 C-206.5699859 365.50099615 -205.46186202 366.58579885 -204.34765625 367.6640625 C-207.91493549 369.44770212 -211.45901103 369.26186032 -215.34765625 368.6640625 C-224.4464479 365.11707592 -230.65136805 358.11029638 -234.91796875 349.4921875 C-237.92676828 342.44300004 -239.5018582 336.82877205 -239.43858337 329.16213989 C-239.43646569 328.40341485 -239.43434801 327.64468981 -239.43216616 326.86297309 C-239.4241042 324.31892869 -239.40906673 321.77497057 -239.39428711 319.23095703 C-239.38749707 317.40761513 -239.38128566 315.584271 -239.37561035 313.76092529 C-239.36315534 309.83330533 -239.34856289 305.9057007 -239.33292961 301.97809219 C-239.31021905 295.76760345 -239.3045327 289.55717533 -239.30360413 283.34664917 C-239.30342236 282.29864895 -239.30324059 281.25064873 -239.30305332 280.17089093 C-239.30260348 275.84793294 -239.30268568 271.52497507 -239.30288875 267.20201707 C-239.30262383 254.92270464 -239.28581319 242.64390195 -239.22094727 230.36474609 C-239.16954089 220.61166264 -239.15328744 210.85923862 -239.17840868 201.10604179 C-239.19036257 195.94437111 -239.18436305 190.78410815 -239.13572502 185.62262344 C-239.09036053 180.76775225 -239.09155674 175.91512499 -239.12847137 171.06020355 C-239.13374227 169.27919761 -239.12191194 167.49804618 -239.09168434 165.71728897 C-238.57914052 156.25655634 -238.57914052 156.25655634 -242.6548481 148.24483871 C-245.18900229 146.70108218 -247.52857501 145.57161646 -250.34765625 144.6640625 C-247.52223776 142.51691321 -244.69188185 140.61811828 -241.62109375 138.8359375 C-240.68523437 138.29130859 -239.749375 137.74667969 -238.78515625 137.18554688 C-237.77453125 136.60095703 -236.76390625 136.01636719 -235.72265625 135.4140625 C-234.66304687 134.79853516 -233.6034375 134.18300781 -232.51171875 133.54882812 C-223.70788269 128.43908994 -214.88837129 123.35640866 -206.06835938 118.2746582 C-194.80276578 111.78115528 -183.57373093 105.22557348 -172.34765625 98.6640625 C-168.38980151 96.35074212 -164.43154962 94.03810501 -160.47265625 91.7265625 C-159.48547607 91.15010986 -158.4982959 90.57365723 -157.48120117 89.97973633 C-150.1815431 85.72204615 -142.86067962 81.50205043 -135.53515625 77.2890625 C-126.53303276 72.11117219 -117.58272792 66.85276861 -108.66015625 61.5390625 C-99.53049126 56.10313851 -90.33986688 50.80045363 -81.06982422 45.6081543 C-72.22932042 40.63834512 -63.51281753 35.46677731 -54.80126953 30.27587891 C-48.02750779 26.24197714 -41.23161088 22.26625952 -34.33984375 18.4375 C-29.42635327 15.52532679 -24.72740396 12.2849925 -20.0078125 9.0703125 C-5.65825595 -0.56780631 -5.65825595 -0.56780631 0 0 Z " fill="#5893F9" transform="translate(441.34765625,115.3359375)"/>
<path d="M0 0 C0.33 0.66 0.66 1.32 1 2 C2.65402256 2.69744648 4.32353789 3.3583638 6 4 C7.85560148 4.98385942 9.69471172 5.9992212 11.51953125 7.0390625 C12.54111328 7.61914062 13.56269531 8.19921875 14.61523438 8.796875 C15.67033203 9.40015625 16.72542969 10.0034375 17.8125 10.625 C18.88693359 11.23601562 19.96136719 11.84703125 21.06835938 12.4765625 C23.71386076 13.98155885 26.3576625 15.48945791 29 17 C29.0700669 41.0173583 29.12297684 65.03470129 29.15543652 89.05214119 C29.17090839 100.20374085 29.1920041 111.35527702 29.22631836 122.50683594 C29.25621082 132.22601516 29.27557267 141.94514841 29.28226548 151.66437232 C29.28617798 156.81109742 29.29537969 161.95769097 29.31719017 167.10437393 C29.33755284 171.94866058 29.34383421 176.79276149 29.33932304 181.63708687 C29.34014834 183.41484016 29.34611529 185.19259966 29.35761642 186.97031593 C29.37255721 189.39882428 29.36894802 191.8266327 29.36076355 194.25515747 C29.36950207 194.95750586 29.3782406 195.65985424 29.38724393 196.38348591 C29.34560337 200.95926529 28.48654199 204.14918838 26 208 C23 209 23 209 21.2734375 208.20703125 C9.82797247 199.79956003 1.25844245 186.11518448 -1 172 C-1.09049045 169.63923286 -1.12627396 167.27613594 -1.12698364 164.91363525 C-1.12854363 164.21178124 -1.13010362 163.50992723 -1.13171089 162.78680491 C-1.13569083 160.44150727 -1.13254296 158.09627466 -1.12939453 155.75097656 C-1.13074985 154.06715355 -1.13253053 152.38333083 -1.13470459 150.69950867 C-1.13926191 146.13169407 -1.13749671 141.56390207 -1.1343255 136.99608707 C-1.1317948 132.21994529 -1.13414127 127.44380544 -1.13571167 122.66766357 C-1.13753058 114.65132296 -1.13513361 106.63499156 -1.13037109 98.61865234 C-1.12492159 89.33853616 -1.12669724 80.05844193 -1.1321975 70.77832627 C-1.13672772 62.81733965 -1.13737985 54.85635965 -1.13475883 46.89537215 C-1.13319651 42.13737996 -1.13300123 37.3793981 -1.13629532 32.62140656 C-1.13917296 28.15302305 -1.13720035 23.68466802 -1.13140106 19.21628761 C-1.1300732 17.57189545 -1.13046802 15.9275009 -1.13266373 14.28310966 C-1.13537404 12.04818359 -1.1319957 9.81335025 -1.12698364 7.57843018 C-1.12660662 6.32483326 -1.12622959 5.07123634 -1.12584114 3.77965164 C-1 1 -1 1 0 0 Z " fill="#E3E5EE" transform="translate(33,169)"/>
<path d="M0 0 C1.89963164 0.94136553 3.79828517 1.88470498 5.6965332 2.82885742 C6.75395218 3.35396408 7.81137115 3.87907074 8.90083313 4.42008972 C13.09569559 6.55856971 17.14817592 8.89628331 21.1875 11.3125 C21.93580078 11.75400391 22.68410156 12.19550781 23.45507812 12.65039062 C28.8502546 15.8502546 28.8502546 15.8502546 30 17 C30.10428438 19.36224112 30.14333284 21.69549519 30.14044189 24.0585022 C30.14341302 24.8057913 30.14638414 25.55308039 30.1494453 26.32301462 C30.15817008 28.84637632 30.15964374 31.36969078 30.16113281 33.89306641 C30.16575847 35.69464216 30.17078278 37.49621692 30.17617798 39.29779053 C30.18933185 44.20713528 30.19575321 49.11646634 30.20018864 54.02582598 C30.2031157 57.09181816 30.20721989 60.15780656 30.21169281 63.22379684 C30.22537812 72.81276388 30.23503864 82.40172233 30.2388947 91.99069846 C30.24337249 103.06589155 30.26090309 114.14096104 30.2898953 125.21611655 C30.31151271 133.77074265 30.32159908 142.32533399 30.32293582 150.87998712 C30.32398418 155.99150802 30.32989809 161.10291289 30.34775543 166.21440506 C30.36423619 171.02588972 30.36639155 175.83717118 30.35761642 180.64867401 C30.35684594 182.41310292 30.36119021 184.17754274 30.37107468 185.94194412 C30.38379654 188.35473604 30.37791629 190.76680864 30.36749268 193.17959595 C30.37554908 193.87445842 30.38360548 194.5693209 30.39190602 195.28523982 C30.34180675 200.25929129 29.15070233 203.61536287 27 208 C21.3646302 208 19.51340578 205.43541132 15.53125 201.6875 C5.87753164 191.4378731 -0.13057952 177.97988059 -0.12025452 163.90690613 C-0.12110894 163.20434655 -0.12196337 162.50178697 -0.12284368 161.77793771 C-0.12448717 159.43030145 -0.11899567 157.08273707 -0.11352539 154.73510742 C-0.11324325 153.04966229 -0.11340178 151.36421703 -0.1139679 149.67877197 C-0.11425482 145.10688904 -0.10837505 140.53503234 -0.10139394 135.96315551 C-0.09514292 131.1838785 -0.09455521 126.4046009 -0.09336853 121.62532043 C-0.09026038 112.5767015 -0.08205393 103.52809465 -0.07201904 94.47948104 C-0.0608419 84.17726529 -0.05534341 73.87504896 -0.05032361 63.57282865 C-0.0398709 42.38187902 -0.02228142 21.19094027 0 0 Z " fill="#E0E5F0" transform="translate(212,273)"/>
<path d="M0 0 C1.30711457 0.43948471 1.30711457 0.43948471 2.64063549 0.8878479 C4.7000872 1.56965053 6.76712871 2.22960775 8.84541035 2.85165405 C17.10446914 5.53255654 24.60239576 8.99232241 30 16 C34.82816331 27.55007581 32.92378819 42.38163502 32.53224921 54.57880783 C32.39247046 59.70696124 32.3880277 64.83532257 32.36787415 69.96508789 C32.31561471 78.56822897 32.17691257 87.16620068 31.9753418 95.76708984 C31.69127144 107.89224659 31.56139842 120.01543809 31.46344507 132.14333344 C31.32400222 148.39371494 31.1417692 164.64614669 30.77836418 180.8931942 C30.74087848 182.64827543 30.7081714 184.40346626 30.68061447 186.15873146 C30.64168871 188.55615312 30.5845137 190.95245127 30.52226257 193.34936523 C30.51463022 194.04216394 30.50699787 194.73496265 30.49913424 195.44875526 C30.35400627 199.97391484 29.26860547 203.10112384 27 207 C21.85819821 207 20.70510164 205.47310932 17.08203125 202.10546875 C6.52204178 191.4266051 -0.26295716 177.75904267 -0.24050903 162.58410645 C-0.24221788 161.88306715 -0.24392673 161.18202785 -0.24568737 160.45974493 C-0.24895424 158.13516516 -0.23802544 155.81088083 -0.22705078 153.48632812 C-0.22648606 151.81029263 -0.22680442 150.13425664 -0.22793579 148.45822144 C-0.22850792 143.92573813 -0.21677622 139.3933614 -0.20278788 134.86090279 C-0.19025724 130.1176826 -0.18910818 125.37445977 -0.18673706 120.63122559 C-0.18052914 111.65706242 -0.16412765 102.68294817 -0.14403808 93.70880651 C-0.12165765 83.48874976 -0.11068026 73.26869063 -0.10064721 63.04861546 C-0.07976081 42.03238303 -0.04459823 21.0161946 0 0 Z " fill="#E3E6EE" transform="translate(122,222)"/>
<path d="M0 0 C3.96 1.98 7.92 3.96 12 6 C12.00146656 6.95268642 12.00293312 7.90537285 12.00444412 8.88692856 C12.04108671 32.0992304 12.10059867 55.31138848 12.18390274 78.52357101 C12.22366249 89.74895203 12.25607057 100.97426325 12.27099609 112.19970703 C12.28402846 121.9871433 12.31103367 131.77442579 12.35461307 141.56177545 C12.37719211 146.74109615 12.39291281 151.92022746 12.39188385 157.09960175 C12.39113514 161.98178926 12.40917046 166.86355863 12.44116783 171.74563789 C12.44963621 173.5305166 12.45143773 175.31544236 12.44580269 177.10033226 C12.40364226 192.51658561 14.57794044 205.31166485 25.796875 216.84765625 C29.9434029 220.58136611 33.99759899 224.0499014 39.8203125 223.953125 C42.56430788 223.71451671 45.27560645 223.40235705 48 223 C48.309375 222.05125 48.61875 221.1025 48.9375 220.125 C50 217 50 217 51 215 C51.10748632 212.56966517 51.1548881 210.16721917 51.15821838 207.73617554 C51.16315636 206.9790095 51.16809434 206.22184346 51.17318195 205.441733 C51.18860399 202.8913334 51.19693026 200.34095907 51.20532227 197.79052734 C51.2148971 195.96759314 51.22490694 194.14466117 51.23532104 192.32173157 C51.262419 187.36127868 51.28340203 182.40081623 51.30332303 177.44033003 C51.32515248 172.26062739 51.35255601 167.08095439 51.37937927 161.90127563 C51.42934737 152.0875939 51.4742709 142.27389574 51.51740164 132.46018183 C51.56673887 121.28983265 51.62167001 110.1195132 51.67708123 98.94919276 C51.79096446 75.96615623 51.89778965 52.9830912 52 30 C53.8136477 30.97703921 55.62588817 31.95669105 57.4375 32.9375 C58.44683594 33.48277344 59.45617187 34.02804688 60.49609375 34.58984375 C63 36 63 36 64 37 C64.10650418 39.36584246 64.14778609 41.7028395 64.14717102 44.06954956 C64.15084771 44.81809995 64.1545244 45.56665034 64.1583125 46.33788407 C64.16939363 48.86572506 64.17320075 51.39352502 64.17700195 53.92138672 C64.18326362 55.72632479 64.18991016 57.53126156 64.19691467 59.3361969 C64.21436034 64.25613635 64.22488766 69.17606605 64.2331202 74.0960288 C64.23826631 77.17076252 64.24434244 80.24549319 64.25063133 83.32022476 C64.26969945 92.94230173 64.28392311 102.56437099 64.2922433 112.18646324 C64.30200115 123.28825296 64.32827588 134.38984253 64.36874419 145.49156177 C64.39894774 154.07257627 64.41371648 162.65353358 64.41702431 171.23460019 C64.41937137 176.3585866 64.42828593 181.4823596 64.45348549 186.60628891 C64.47684314 191.43424347 64.48096857 196.26184533 64.47072411 201.08984184 C64.47023038 202.85582213 64.47650224 204.6218202 64.49028015 206.38774681 C64.56025918 215.89425848 64.26534869 224.27132491 60 233 C59.68220738 233.72030836 59.36441477 234.44061672 59.03699207 235.18275261 C57.36481752 238.11310755 55.07287637 238.78244521 52 240 C44.19560795 241.91428484 37.86061128 240.27863464 31 236.375 C15.01144435 226.07016584 4.91510982 210.57484126 0.419451 192.16532421 C-0.24659304 188.72701725 -0.26887812 185.311395 -0.24050903 181.8248291 C-0.24221788 181.04211875 -0.24392673 180.25940841 -0.24568737 179.45297956 C-0.24895982 176.85202096 -0.23801591 174.25132513 -0.22705078 171.65039062 C-0.22648618 169.77731329 -0.22680418 167.90423552 -0.22793579 166.03115845 C-0.2285084 160.96150689 -0.21676894 155.89195044 -0.20278788 150.82232094 C-0.19026521 145.51855581 -0.1891088 140.21478838 -0.18673706 134.91101074 C-0.18052681 124.87437106 -0.16412213 114.83777507 -0.14403808 104.80115461 C-0.12166494 93.37193027 -0.11068209 81.94270382 -0.10064721 70.51346302 C-0.07975552 47.00895115 -0.04458837 23.50447802 0 0 Z " fill="#D3374E" transform="translate(10,156)"/>
<path d="M0 0 C8.91053244 2.09254843 8.91053244 2.09254843 12 6 C13.21393306 11.80156351 12.96846374 17.56512474 12.84472656 23.46728516 C12.8359198 25.28265039 12.83069937 27.09803604 12.82879639 28.91342163 C12.81706291 32.82248293 12.78008118 36.7302057 12.72357941 40.63887405 C12.63444415 46.82558827 12.60214214 53.01180669 12.57757568 59.19906616 C12.53203826 68.99285769 12.44914613 78.78591498 12.34998488 88.57929742 C12.17289309 106.09531334 12.0396831 123.61157373 11.9490087 141.12824857 C11.91548458 147.27144809 11.85949028 153.41390694 11.78511858 159.55674291 C11.74234337 163.38997909 11.71613865 167.22320898 11.69391632 171.05661392 C11.68011155 172.82588181 11.65934071 174.59511216 11.63084412 176.36420441 C11.48064122 185.9045733 11.72992912 194.22700895 16 203 C16.46921875 203.99515625 16.9384375 204.9903125 17.421875 206.015625 C21.44224403 212.77930467 26.5020932 218.98669029 34 222 C36.45204585 222.35121415 36.45204585 222.35121415 39 222.3125 C40.2684375 222.33763672 40.2684375 222.33763672 41.5625 222.36328125 C44.57468774 221.91434942 45.84019456 221.13653167 48 219 C50.1360638 214.83747414 50.2910468 210.9589281 50.2784729 206.37541199 C50.2842653 205.61568268 50.2900577 204.85595337 50.29602563 204.07320195 C50.31300652 201.53207512 50.31590047 198.99113012 50.31884766 196.44995117 C50.32814715 194.62657222 50.33831586 192.80319753 50.34928894 190.97982788 C50.37660055 186.03194369 50.39174183 181.08408799 50.40471697 176.13614821 C50.42034238 170.96445556 50.4471345 165.79282114 50.4727478 160.62117004 C50.51954599 150.82884349 50.55628509 141.03650599 50.58942068 131.24412471 C50.62763469 120.09545455 50.67704675 108.94684284 50.72740483 97.79822195 C50.83074017 74.86552462 50.9199954 51.93278975 51 29 C52.62741744 29.78668518 54.25186131 30.5795241 55.875 31.375 C56.77992188 31.81585938 57.68484375 32.25671875 58.6171875 32.7109375 C61 34 61 34 63 36 C63.20168213 38.43379152 63.27810177 40.75447195 63.26742554 43.18980408 C63.27195665 43.93920889 63.27648776 44.6886137 63.28115618 45.46072775 C63.29387083 47.9855176 63.29217525 50.51009368 63.29052734 53.03491211 C63.29650857 54.83999918 63.30331317 56.64508368 63.31088257 58.45016479 C63.32860036 63.36593102 63.33324063 68.28162768 63.33451414 73.19742274 C63.33641115 77.302256 63.34376719 81.407073 63.35085833 85.51190001 C63.3671651 95.20366108 63.37202555 104.89538499 63.37060547 114.5871582 C63.36940636 124.57316619 63.39045679 134.55895723 63.4220928 144.54491037 C63.44829297 153.1217074 63.45897105 161.69843381 63.45769465 170.27527052 C63.45718572 175.39587582 63.46282975 180.51628882 63.48405075 185.63685417 C63.50349373 190.46073476 63.50351626 195.28424101 63.48901749 200.10813522 C63.48693514 201.87249743 63.49159582 203.63688341 63.5037384 205.40120506 C63.5733909 216.2292168 63.10262513 225.71785527 57 235.0625 C53.36228444 238.58653695 50.33553588 239.3093394 45.3125 239.375 C32.76735214 239.13110891 23.64052937 231.26859752 15.234375 222.6015625 C5.0854572 210.78481555 -1.23051799 195.88064346 -1.08229065 180.26152039 C-1.07906152 179.48954042 -1.07583239 178.71756045 -1.07250541 177.92218715 C-1.06045697 175.339594 -1.04107865 172.75710853 -1.02172852 170.17456055 C-1.0115829 168.3216322 -1.00188954 166.46870134 -0.99261475 164.61576843 C-0.96616207 159.5872645 -0.93337675 154.55881936 -0.89946485 149.53036094 C-0.86509381 144.2746407 -0.83653233 139.018889 -0.80735779 133.76313782 C-0.7512315 123.81139008 -0.6898713 113.85968175 -0.62663645 103.90797693 C-0.55489817 92.57799081 -0.48898589 81.24797316 -0.42356598 69.91794908 C-0.2888656 46.61192513 -0.14683912 23.30595041 0 0 Z " fill="#EFA144" transform="translate(101,209)"/>
<path d="M0 0 C3.63 1.98 7.26 3.96 11 6 C11.00146656 6.94753269 11.00293312 7.89506538 11.00444412 8.87131119 C11.04108731 31.95843548 11.10060006 55.04541525 11.18390274 78.13241959 C11.22366186 89.29726646 11.25607026 100.46204316 11.27099609 111.62695312 C11.28402879 121.36165211 11.31103482 131.0961965 11.35461307 140.8308084 C11.37719139 145.98218367 11.39291285 151.13336853 11.39188385 156.28479767 C11.3911351 161.14072129 11.40917213 165.99622455 11.44116783 170.85203934 C11.44963567 172.62724259 11.45143811 174.40249317 11.44580269 176.17770767 C11.40307291 191.71653592 13.94703733 203.67551691 24.375 215.75 C29.95896703 220.53625745 34.40003824 223.84991144 42.01953125 223.3515625 C44.81789983 222.85481068 46.17050038 222.19539954 48 220 C49.88693717 215.39640876 50.29208637 211.20771217 50.2784729 206.29312134 C50.2842653 205.53662115 50.2900577 204.78012097 50.29602563 204.00069654 C50.31297376 201.47649485 50.31589764 198.95247657 50.31884766 196.42822266 C50.32814942 194.61454828 50.33831846 192.80087818 50.34928894 190.98721313 C50.37657503 186.07037893 50.39173427 181.15357335 50.40471697 176.23668337 C50.42035355 171.09569295 50.44714211 165.95476094 50.4727478 160.81381226 C50.5195262 151.08172624 50.55627489 141.34962922 50.58942068 131.61748827 C50.62764866 120.53650811 50.67705707 109.45558664 50.72740483 98.37465596 C50.83071074 75.58314747 50.91997554 52.79160128 51 30 C55.30764815 31.56641751 59.06171464 33.68336156 63 36 C63.07013819 59.94827528 63.12301177 83.89653513 63.15543652 107.8448925 C63.17089328 118.96498934 63.19196007 130.0850223 63.22631836 141.20507812 C63.25625712 150.89939198 63.27558366 160.59365955 63.28226548 170.28801835 C63.28617014 175.41922176 63.2953219 180.55029279 63.31719017 185.6814537 C63.33762602 190.51590359 63.34381947 195.35016716 63.33932304 200.18465614 C63.34014507 201.95427909 63.34606827 203.72390858 63.35761642 205.49349403 C63.43257335 217.57721394 63.32943812 228.48064215 55 238 C50.59710415 240.89333156 45.08507035 240.58559848 40 240 C32.47210582 238.07773956 26.77011487 234.06776006 21 229 C20.39414063 228.48824219 19.78828125 227.97648438 19.1640625 227.44921875 C8.01251389 217.28163031 -0.34612193 200.16680911 -1.23047829 185.06393433 C-1.23151402 183.6635233 -1.22165242 182.26307402 -1.20254517 180.86279297 C-1.20017046 180.08416617 -1.19779576 179.30553938 -1.1953491 178.50331783 C-1.18500176 175.91612289 -1.16013976 173.32928026 -1.13525391 170.7421875 C-1.12481904 168.87896691 -1.11528545 167.01574108 -1.10658264 165.1525116 C-1.08048564 160.10966842 -1.04181716 155.06699146 -1.00085878 150.02425003 C-0.96015707 144.74855111 -0.93106235 139.47278836 -0.90072632 134.19702148 C-0.84156164 124.2134614 -0.77198735 114.23000219 -0.69865549 104.24653721 C-0.61565661 92.87781424 -0.5442892 81.50902752 -0.47388959 70.14022064 C-0.32885133 46.76005334 -0.16923609 23.38000379 0 0 Z " fill="#3A53D0" transform="translate(191,260)"/>
<path d="M0 0 C2.36196367 0.99235279 4.4250058 2.09489261 6.5625 3.5078125 C7.60857422 4.19037109 7.60857422 4.19037109 8.67578125 4.88671875 C9.19527344 5.23605469 9.71476562 5.58539063 10.25 5.9453125 C7.41572371 8.99716458 4.63442939 11.07612747 1.015625 13.125 C-0.53922607 14.01264038 -0.53922607 14.01264038 -2.12548828 14.91821289 C-3.79587158 15.8597522 -3.79587158 15.8597522 -5.5 16.8203125 C-6.6708425 17.48678987 -7.84124623 18.15403859 -9.01123047 18.82202148 C-10.81387556 19.8511087 -12.6167628 20.87974024 -14.42098999 21.90605164 C-20.26417997 25.2302924 -26.0724065 28.61325195 -31.875 32.0078125 C-33.85936309 33.16668706 -35.8437381 34.32554122 -37.828125 35.484375 C-39.80213119 36.63793894 -41.77608959 37.79158467 -43.75 38.9453125 C-57.15617881 46.78106916 -70.57920683 54.58568961 -84.03417969 62.33740234 C-95.2979725 68.83031128 -106.52552764 75.38473806 -117.75 81.9453125 C-131.15617881 89.78106916 -144.57920683 97.58568961 -158.03417969 105.33740234 C-170.31486045 112.41648691 -182.55393138 119.56653566 -194.78955078 126.72314453 C-195.79872559 127.31337402 -196.80790039 127.90360352 -197.84765625 128.51171875 C-198.85521973 129.10170654 -199.8627832 129.69169434 -200.90087891 130.29956055 C-202.90850403 131.47027168 -204.91985523 132.63461869 -206.93505859 133.79223633 C-211.88325347 136.64007434 -216.73643561 139.56068754 -221.50390625 142.703125 C-234.44308202 151.03686984 -234.44308202 151.03686984 -238.81689453 150.86328125 C-242.76978856 149.80188414 -245.77296697 147.68196398 -248.75 144.9453125 C-248.75 144.2853125 -248.75 143.6253125 -248.75 142.9453125 C-246.95947266 141.67114258 -246.95947266 141.67114258 -244.4140625 140.21484375 C-242.9909375 139.39306641 -242.9909375 139.39306641 -241.5390625 138.5546875 C-240.49492187 137.96171875 -239.45078125 137.36875 -238.375 136.7578125 C-237.29734375 136.13777344 -236.2196875 135.51773438 -235.109375 134.87890625 C-232.81844419 133.56148876 -230.52623731 132.24667742 -228.23144531 130.93603516 C-223.80680914 128.40817787 -219.394439 125.85914869 -214.98144531 123.31103516 C-212.81204669 122.05850084 -210.64211721 120.80688555 -208.47167969 119.55615234 C-197.20533361 113.06331177 -185.97635017 106.5069845 -174.75 99.9453125 C-170.79214526 97.63199212 -166.83389337 95.31935501 -162.875 93.0078125 C-161.88781982 92.43135986 -160.90063965 91.85490723 -159.88354492 91.26098633 C-152.58388651 87.00329595 -145.26299394 82.78335198 -137.9375 78.5703125 C-129.04102939 73.45245038 -120.19353286 68.25873742 -111.375 63.0078125 C-100.98961775 56.82621641 -90.53238963 50.78678032 -80.02880859 44.80932617 C-69.54360566 38.84090328 -59.11902508 32.77212511 -48.70751953 26.67626953 C-45.66941135 24.89814612 -42.62991156 23.12242704 -39.58984375 21.34765625 C-38.57027588 20.75235107 -37.55070801 20.1570459 -36.50024414 19.54370117 C-34.48096281 18.36625654 -32.46064007 17.19059581 -30.43920898 16.0168457 C-25.66723082 13.24442562 -20.91362524 10.44888519 -16.1953125 7.5859375 C-15.32688721 7.06539795 -14.45846191 6.5448584 -13.5637207 6.00854492 C-11.94311005 5.03617853 -10.32914513 4.05261352 -8.72338867 3.0559082 C-3.47722981 -0.06914946 -3.47722981 -0.06914946 0 0 Z " fill="#FD90AA" transform="translate(259.75,12.0546875)"/>
<path d="M0 0 C3.92339266 1.95880723 6.5905958 4.6320804 9.65234375 7.69921875 C9.04165039 8.03429443 8.43095703 8.36937012 7.80175781 8.71459961 C-4.72159686 15.60662378 -17.09736645 22.66889193 -29.28515625 30.13671875 C-41.44646185 37.5849248 -53.74118803 44.77163329 -66.12109375 51.85205078 C-71.57863416 54.9764266 -77.02563504 58.11905045 -82.47265625 61.26171875 C-83.54902344 61.88248291 -84.62539063 62.50324707 -85.734375 63.14282227 C-96.96170827 69.62240883 -108.15619275 76.15793761 -119.34765625 82.69921875 C-132.75524343 90.53579858 -146.17924904 98.34200483 -159.63623047 106.09350586 C-167.87223141 110.84041498 -176.08628515 115.62394407 -184.29321289 120.42089844 C-192.86969499 125.42990866 -201.46714375 130.40226042 -210.08496094 135.33984375 C-214.94906483 138.13200798 -219.78848073 140.94560758 -224.5546875 143.90234375 C-225.33207275 144.37961914 -226.10945801 144.85689453 -226.91040039 145.34863281 C-228.31571969 146.21638885 -229.71290877 147.09753078 -231.09936523 147.99511719 C-234.08966383 149.83276159 -235.98202036 150.70954999 -239.52734375 150.609375 C-242.26605276 149.7255534 -244.34180627 148.73763511 -246.72265625 147.13671875 C-247.41101563 146.68167969 -248.099375 146.22664062 -248.80859375 145.7578125 C-249.57042969 145.23380859 -249.57042969 145.23380859 -250.34765625 144.69921875 C-247.54537737 142.52386047 -244.68839294 140.65124968 -241.62109375 138.87109375 C-240.68523437 138.32646484 -239.749375 137.78183594 -238.78515625 137.22070312 C-237.77453125 136.63611328 -236.76390625 136.05152344 -235.72265625 135.44921875 C-234.66304687 134.83369141 -233.6034375 134.21816406 -232.51171875 133.58398438 C-223.70788269 128.47424619 -214.88837129 123.39156491 -206.06835938 118.30981445 C-194.80276578 111.81631153 -183.57373093 105.26072973 -172.34765625 98.69921875 C-168.38980151 96.38589837 -164.43154962 94.07326126 -160.47265625 91.76171875 C-159.48547607 91.18526611 -158.4982959 90.60881348 -157.48120117 90.01489258 C-150.1815431 85.7572024 -142.86067962 81.53720668 -135.53515625 77.32421875 C-126.53303276 72.14632844 -117.58272792 66.88792486 -108.66015625 61.57421875 C-99.53049126 56.13829476 -90.33986688 50.83560988 -81.06982422 45.64331055 C-72.22932042 40.67350137 -63.51281753 35.50193356 -54.80126953 30.31103516 C-48.02750779 26.27713339 -41.23161088 22.30141577 -34.33984375 18.47265625 C-29.42635327 15.56048304 -24.72740396 12.32014875 -20.0078125 9.10546875 C-5.69012051 -0.5112477 -5.69012051 -0.5112477 0 0 Z " fill="#7CB0FB" transform="translate(441.34765625,115.30078125)"/>
<path d="M0 0 C5.81316339 0.29065817 10.13978949 3.07307323 15 6 C11.61195353 8.82625993 8.2099941 11.15818682 4.37109375 13.328125 C2.7164209 14.26809326 2.7164209 14.26809326 1.02832031 15.22705078 C-0.16861119 15.90138246 -1.36555153 16.57569844 -2.5625 17.25 C-3.81309434 17.95899869 -5.06341511 18.66848014 -6.31347656 19.37841797 C-8.91182753 20.85350604 -11.51133993 22.32651397 -14.11181641 23.79785156 C-20.16655209 27.22501777 -26.2088455 30.67396688 -32.25 34.125 C-32.83053131 34.45647034 -33.41106262 34.78794067 -34.00918579 35.12945557 C-45.07058913 41.44691023 -56.08047129 47.85061984 -67.07324219 54.28662109 C-81.44956314 62.70278897 -95.84970055 71.0760615 -110.28417969 79.39208984 C-121.5479725 85.88499878 -132.77552764 92.43942556 -144 99 C-157.39879998 106.83144382 -170.81369953 114.63308124 -184.26220703 122.37890625 C-190.73674585 126.11029287 -197.20079691 129.85890838 -203.65307617 133.62866211 C-205.68859669 134.81756014 -207.72518769 136.00462763 -209.76293945 137.18969727 C-214.00616713 139.65797068 -218.24038188 142.13502609 -222.43359375 144.6875 C-223.08038086 145.07494385 -223.72716797 145.4623877 -224.39355469 145.86157227 C-226.03257702 146.84458416 -227.66323687 147.84150485 -229.29296875 148.83984375 C-232.47370331 150.2030157 -233.76687937 150.11670285 -237 149 C-239.44967679 147.82017501 -241.67088852 146.41573443 -244 145 C-242.73707574 141.21122721 -241.65511028 140.96710351 -238.20703125 139.1015625 C-237.19584229 138.54670166 -236.18465332 137.99184082 -235.14282227 137.42016602 C-233.49431274 136.53155884 -233.49431274 136.53155884 -231.8125 135.625 C-229.50402112 134.35762883 -227.19674976 133.08805597 -224.890625 131.81640625 C-224.01417076 131.33448067 -224.01417076 131.33448067 -223.12001038 130.84281921 C-217.7025121 127.85639037 -212.37403116 124.73248323 -207.0625 121.5625 C-199.11885657 116.83274671 -191.13835638 112.17321641 -183.125 107.5625 C-174.69474063 102.71054321 -166.27482331 97.84198399 -157.875 92.9375 C-156.39966797 92.07608398 -156.39966797 92.07608398 -154.89453125 91.19726562 C-151.92940104 89.46533346 -148.96462837 87.73279104 -146 86 C-142.04214526 83.68667962 -138.08389337 81.37404251 -134.125 79.0625 C-133.13781982 78.48604736 -132.15063965 77.90959473 -131.13354492 77.31567383 C-123.83388651 73.05798345 -116.51299394 68.83803948 -109.1875 64.625 C-100.29103215 59.50713946 -91.4434306 54.31359394 -82.625 49.0625 C-72.04971922 42.76539749 -61.39664211 36.62090345 -50.69433594 30.54321289 C-43.21328532 26.28853887 -35.81005339 21.93555267 -28.4921875 17.40625 C-26 16 -26 16 -24 16 C-24 15.34 -24 14.68 -24 14 C-23.30849854 13.61142822 -22.61699707 13.22285645 -21.90454102 12.82250977 C-18.78956569 11.07087689 -15.67601708 9.31672349 -12.5625 7.5625 C-11.47388672 6.95083984 -10.38527344 6.33917969 -9.26367188 5.70898438 C-8.22919922 5.12568359 -7.19472656 4.54238281 -6.12890625 3.94140625 C-5.17056885 3.40201416 -4.21223145 2.86262207 -3.22485352 2.30688477 C-1.10085689 1.18471061 -1.10085689 1.18471061 0 0 Z " fill="#FEDB93" transform="translate(346,64)"/>
<path d="M0 0 C5.445 2.97 5.445 2.97 11 6 C11 6.99 11 7.98 11 9 C10.03682861 9.53403442 10.03682861 9.53403442 9.05419922 10.07885742 C-3.263611 16.9180749 -15.52012275 23.83067657 -27.62670898 31.03857422 C-34.61122277 35.19321487 -41.64049294 39.26488026 -48.6875 43.3125 C-57.62664341 48.4497407 -66.51686053 53.66188569 -75.375 58.9375 C-84.59523286 64.42570205 -93.8623533 69.81776527 -103.1875 75.125 C-112.2318695 80.27262174 -121.2591391 85.4468415 -130.25 90.6875 C-131.2196167 91.25162598 -132.1892334 91.81575195 -133.18823242 92.39697266 C-134.55685425 93.19627197 -134.55685425 93.19627197 -135.953125 94.01171875 C-137.24379883 94.76267822 -137.24379883 94.76267822 -138.56054688 95.52880859 C-140.88557343 96.93099134 -143.11335378 98.43294542 -145.359375 99.95703125 C-147.86302748 101.52892219 -148.67449908 102.0032974 -151.69921875 101.97265625 C-154.17586062 100.92565485 -156.48778053 99.79069491 -158.8125 98.4375 C-159.60269531 97.98246094 -160.39289063 97.52742188 -161.20703125 97.05859375 C-162.09455078 96.53458984 -162.09455078 96.53458984 -163 96 C-159.04327888 92.60852475 -154.93722456 90.19439895 -150.375 87.75 C-142.37160333 83.3854262 -134.51641206 78.79415497 -126.6875 74.125 C-117.76341916 68.80712064 -108.80409263 63.56229945 -99.77099609 58.43139648 C-93.25796141 54.72879794 -86.77966683 50.96959789 -80.3125 47.1875 C-71.89125885 42.26313993 -63.45351933 37.36874328 -55 32.5 C-43.55587881 25.90676359 -32.13692874 19.27142919 -20.73730469 12.6015625 C-18.93363056 11.54625548 -17.1296025 10.49155312 -15.32519531 9.4375 C-12.9033117 8.02250828 -10.48266463 6.6054293 -8.0625 5.1875 C-6.99696899 4.56524536 -6.99696899 4.56524536 -5.90991211 3.93041992 C-2.77507478 2.2103044 -2.77507478 2.2103044 0 0 Z " fill="#7BB1FE" transform="translate(405,194)"/>
<path d="M0 0 C3.96 2.31 7.92 4.62 12 7 C9.40875176 9.59124824 7.48137877 11.03448981 4.37109375 12.828125 C3.43225342 13.37259277 2.49341309 13.91706055 1.52612305 14.47802734 C0.50687744 15.06277832 -0.51236816 15.6475293 -1.5625 16.25 C-2.62879639 16.86697754 -3.69509277 17.48395508 -4.79370117 18.11962891 C-8.1928662 20.08489129 -11.595911 22.04328065 -15 24 C-19.2713197 26.45748924 -23.5421268 28.9158664 -27.8125 31.375 C-28.88975342 31.99479736 -29.96700684 32.61459473 -31.0769043 33.25317383 C-38.88065167 37.75219931 -46.63546388 42.32905506 -54.375 46.9375 C-64.76038225 53.11909609 -75.21761037 59.15853218 -85.72119141 65.13598633 C-96.18587978 71.09273185 -106.58997434 77.14970436 -116.98095703 83.23388672 C-120.202924 85.11870874 -123.42731988 86.99931983 -126.65234375 88.87890625 C-127.74579102 89.51618652 -128.83923828 90.1534668 -129.96582031 90.81005859 C-132.06016066 92.03054035 -134.15455853 93.25092341 -136.24902344 94.47119141 C-137.19165039 95.02081543 -138.13427734 95.57043945 -139.10546875 96.13671875 C-139.93199951 96.61842529 -140.75853027 97.10013184 -141.61010742 97.59643555 C-143.30295491 98.59063109 -144.97326749 99.62366206 -146.6262207 100.68286133 C-149 102 -149 102 -151.875 101.9375 C-155.70534642 100.78839607 -158.60390351 99.10557982 -162 97 C-160.78416075 93.35248225 -159.99712003 93.14744257 -156.71484375 91.35546875 C-155.80420166 90.85088135 -154.89355957 90.34629395 -153.95532227 89.82641602 C-152.95944092 89.28557373 -151.96355957 88.74473145 -150.9375 88.1875 C-148.8194589 87.0145609 -146.70229773 85.84003172 -144.5859375 84.6640625 C-143.49249023 84.05852539 -142.39904297 83.45298828 -141.27246094 82.82910156 C-136.16339267 79.97345105 -131.11167377 77.0224036 -126.0625 74.0625 C-125.06903564 73.48129395 -124.07557129 72.90008789 -123.05200195 72.30126953 C-121.03678581 71.12197201 -119.02189269 69.94212233 -117.00732422 68.76171875 C-112.04930249 65.85726309 -107.08761895 62.95909225 -102.125 60.0625 C-101.14023682 59.48765869 -100.15547363 58.91281738 -99.14086914 58.32055664 C-90.68220757 53.38788207 -82.20029529 48.49600718 -73.71582031 43.60791016 C-63.4576869 37.69470426 -53.22983112 31.7303805 -43.00732422 25.75585938 C-39.90367348 23.9437587 -36.79783148 22.1354649 -33.69140625 20.328125 C-20.34517808 12.56179045 -20.34517808 12.56179045 -7.0625 4.6875 C-6.14005493 4.13678833 -6.14005493 4.13678833 -5.19897461 3.57495117 C-2.44390678 1.99628221 -2.44390678 1.99628221 0 0 Z " fill="#FEDC94" transform="translate(315,142)"/>
<path d="M0 0 C2.51168583 1.23136656 4.70468277 2.56252406 6.93066406 4.25170898 C6.93066406 5.57170898 6.93066406 6.89170898 6.93066406 8.25170898 C6.26236572 8.62344238 5.59406738 8.99517578 4.90551758 9.37817383 C-7.73879187 16.41785542 -20.336084 23.51278372 -32.78125 30.89868164 C-37.34543347 33.59764715 -41.92670132 36.26743307 -46.50683594 38.93920898 C-47.51883057 39.52959961 -48.5308252 40.11999023 -49.57348633 40.72827148 C-58.15078442 45.72671261 -66.74983151 50.68700975 -75.35180664 55.64282227 C-85.61617141 61.5595933 -95.85063402 67.52691857 -106.07958984 73.50463867 C-109.13176779 75.28819129 -112.18441619 77.07093538 -115.23730469 78.85327148 C-116.25566406 79.4480127 -117.27402344 80.04275391 -118.32324219 80.65551758 C-120.34149834 81.83251147 -122.36100548 83.00736319 -124.38183594 84.17993164 C-129.14592855 86.94610263 -133.88792132 89.73870565 -138.58886719 92.61108398 C-139.45278076 93.13162354 -140.31669434 93.65216309 -141.20678711 94.18847656 C-142.81553124 95.15902816 -144.41661066 96.14245028 -146.00805664 97.14111328 C-149.41524852 99.17989013 -151.3093766 100.27161268 -155.35058594 100.16577148 C-158.99802133 98.93947855 -161.80247472 97.27716294 -165.06933594 95.25170898 C-165.06933594 94.59170898 -165.06933594 93.93170898 -165.06933594 93.25170898 C-164.40740234 92.87062988 -163.74546875 92.48955078 -163.06347656 92.09692383 C-151.04831931 85.17766517 -139.03990054 78.24793722 -127.06933594 71.25170898 C-118.75182588 66.39066585 -110.41727935 61.56029792 -102.06933594 56.75170898 C-89.70911076 49.6308449 -77.38466267 42.4498752 -65.06933594 35.25170898 C-51.45098046 27.29193752 -37.81805588 19.35885305 -24.14794922 11.48828125 C-23.13716309 10.90618896 -22.12637695 10.32409668 -21.08496094 9.72436523 C-20.09592773 9.16128662 -19.10689453 8.59820801 -18.08789062 8.01806641 C-15.97868573 6.78383012 -13.89753232 5.50095032 -11.83984375 4.18261719 C-10.79151367 3.52221436 -9.74318359 2.86181152 -8.66308594 2.18139648 C-7.72658203 1.57150879 -6.79007813 0.96162109 -5.82519531 0.33325195 C-3.06933594 -0.74829102 -3.06933594 -0.74829102 0 0 Z " fill="#FD91AB" transform="translate(228.0693359375,91.748291015625)"/>
<path d="M0 0 C3.77071576 0.46238483 6.54881275 1.66274175 9.8125 3.5625 C10.60269531 4.01753906 11.39289063 4.47257812 12.20703125 4.94140625 C12.79871094 5.29074219 13.39039063 5.64007813 14 6 C11.14799957 9.07526941 8.34077221 11.1541877 4.6953125 13.21484375 C3.64714355 13.81256592 2.59897461 14.41028809 1.51904297 15.02612305 C-0.1610083 15.97225464 -0.1610083 15.97225464 -1.875 16.9375 C-4.2255001 18.27334014 -6.57356197 19.61344491 -8.921875 20.953125 C-9.51449127 21.2903508 -10.10710754 21.6275766 -10.71768188 21.97502136 C-17.46392088 25.81984222 -24.13300631 29.79398447 -30.79248047 33.78686523 C-32.42871676 34.76174854 -34.07082402 35.72687254 -35.71972656 36.68017578 C-37.2209749 37.5490996 -38.70812161 38.44293308 -40.17871094 39.36279297 C-42.12925379 40.5005327 -43.8186365 41.41632517 -46 42 C-49.1875 40.859375 -49.1875 40.859375 -52 38.75 C-52.94875 38.06421875 -53.8975 37.3784375 -54.875 36.671875 C-55.57625 36.12015625 -56.2775 35.5684375 -57 35 C-53.98249977 32.51717964 -50.99823882 30.28318162 -47.625 28.3125 C-46.74070312 27.79171875 -45.85640625 27.2709375 -44.9453125 26.734375 C-43.97335937 26.16203125 -43.00140625 25.5896875 -42 25 C-40.41967987 24.04296135 -38.83939873 23.08585773 -37.25976562 22.12768555 C-28.11611515 16.59303696 -18.84676527 11.27636407 -9.57226562 5.96508789 C-8.47849609 5.33723389 -7.38472656 4.70937988 -6.2578125 4.0625 C-4.77498779 3.21365234 -4.77498779 3.21365234 -3.26220703 2.34765625 C-1.10783214 1.18969506 -1.10783214 1.18969506 0 0 Z " fill="#FD91AB" transform="translate(308,12)"/>
<path d="M0 0 C3.96 1.98 7.92 3.96 12 6 C12 6.99 12 7.98 12 9 C11.44989258 9.30478271 10.89978516 9.60956543 10.33300781 9.92358398 C-3.19301871 17.44004743 -16.50180101 25.24391057 -29.68066406 33.34936523 C-30.25689011 33.70271439 -30.83311615 34.05606354 -31.42680359 34.42012024 C-32.99044307 35.37952925 -34.55206015 36.34223219 -36.11352539 37.30517578 C-44.32837125 42.12860976 -44.32837125 42.12860976 -47.9375 41.4375 C-51.42766206 39.79926066 -54.69386641 37.98368015 -58 36 C-55.2443116 32.81184955 -51.71910722 30.90797069 -48.125 28.8125 C-46.74827198 27.9994187 -45.37197588 27.18560563 -43.99609375 26.37109375 C-43.31272949 25.96745605 -42.62936523 25.56381836 -41.92529297 25.14794922 C-39.32163993 23.59553017 -36.75583115 21.98505121 -34.1875 20.375 C-26.1342652 15.38869699 -17.89311392 10.71851655 -9.67260742 6.01513672 C-8.56892822 5.38236816 -7.46524902 4.74959961 -6.328125 4.09765625 C-5.3268457 3.52539307 -4.32556641 2.95312988 -3.29394531 2.36352539 C-1.11188495 1.19406388 -1.11188495 1.19406388 0 0 Z " fill="#7BB0FE" transform="translate(489,115)"/>
<path d="M0 0 C2.45703125 1.19140625 2.45703125 1.19140625 4.8125 2.5625 C5.60269531 3.01753906 6.39289063 3.47257812 7.20703125 3.94140625 C7.79871094 4.29074219 8.39039063 4.64007813 9 5 C6.36705311 7.80518876 3.89818288 9.82702147 0.52734375 11.671875 C-0.35985352 12.16389404 -1.24705078 12.65591309 -2.16113281 13.1628418 C-3.11858398 13.686604 -4.07603516 14.21036621 -5.0625 14.75 C-14.37674047 19.92533235 -23.5907828 25.24443187 -32.75 30.6875 C-33.63886398 31.21470642 -33.63886398 31.21470642 -34.54568481 31.75256348 C-41.34618761 35.75898773 -41.34618761 35.75898773 -48 40 C-53.6311913 39.86904206 -57.50983731 37.08841139 -62 34 C-58.22450772 30.82515422 -54.24634528 28.23530447 -50 25.75 C-48.64412416 24.94730182 -47.28866142 24.14390548 -45.93359375 23.33984375 C-45.26312012 22.94265137 -44.59264648 22.54545898 -43.90185547 22.13623047 C-41.26738417 20.56231142 -38.66578752 18.93737074 -36.0625 17.3125 C-33.71101594 15.87041341 -31.35646179 14.43390245 -29 13 C-28.06784668 12.42926758 -27.13569336 11.85853516 -26.17529297 11.27050781 C-22.95954989 9.31023632 -19.7310692 7.37238866 -16.5 5.4375 C-15.44820557 4.79272705 -14.39641113 4.1479541 -13.31274414 3.48364258 C-12.31235107 2.88962646 -11.31195801 2.29561035 -10.28125 1.68359375 C-9.38470703 1.14275146 -8.48816406 0.60190918 -7.56445312 0.04467773 C-4.51291969 -1.19842123 -3.099364 -0.99002486 0 0 Z " fill="#FEDC94" transform="translate(403,65)"/>
<path d="M0 0 C0 4.29 0 8.58 0 13 C-1.54945313 13.85980469 -3.09890625 14.71960938 -4.6953125 15.60546875 C-18.14026178 23.08792168 -31.46222315 30.74051388 -44.6796875 38.61816406 C-47.88454972 40.52678361 -51.09599196 42.42356014 -54.3125 44.3125 C-55.21613281 44.84488281 -56.11976563 45.37726563 -57.05078125 45.92578125 C-59 47 -59 47 -60 47 C-60 42.71 -60 38.42 -60 34 C-58.4015625 33.07960938 -56.803125 32.15921875 -55.15625 31.2109375 C-43.71680554 24.62023165 -32.28401438 18.01829173 -20.875 11.375 C-19.89982422 10.8082959 -18.92464844 10.2415918 -17.91992188 9.65771484 C-13.06489626 6.82674433 -8.26608825 3.94768888 -3.56298828 0.86962891 C-2 0 -2 0 0 0 Z " fill="#DFE4F0" transform="translate(482,295)"/>
<path d="M0 0 C0.24488368 1.86837181 0.41850119 3.74615844 0.5625 5.625 C0.71912109 7.19121094 0.71912109 7.19121094 0.87890625 8.7890625 C-0.33182235 13.21225765 -2.53879742 14.22272626 -6.36743164 16.52148438 C-7.2361792 17.00939453 -8.10492676 17.49730469 -9 18 C-10.23447876 18.71639648 -10.23447876 18.71639648 -11.49389648 19.44726562 C-14.14887862 20.9697994 -16.82186048 22.45611026 -19.5 23.9375 C-26.04586704 27.58650254 -32.54617778 31.29228793 -38.953125 35.1796875 C-39.52353516 35.52538284 -40.09394531 35.87107819 -40.68164062 36.22724915 C-43.46515702 37.91697527 -46.24236007 39.61624727 -49.01367188 41.32592773 C-50.01462891 41.93637939 -51.01558594 42.54683105 -52.046875 43.17578125 C-53.37477051 43.99429565 -53.37477051 43.99429565 -54.72949219 44.8293457 C-57 46 -57 46 -60 46 C-60.73687221 41.80348665 -60.95383651 38.17465029 -60 34 C-56.67872917 30.43548116 -52.54500738 28.43390943 -48.25 26.25 C-47.037239 25.59030366 -45.82697837 24.92599191 -44.61914062 24.25732422 C-42.07835355 22.85796876 -39.52616214 21.48368551 -36.96289062 20.12597656 C-31.01227525 16.9580733 -25.19216091 13.56140614 -19.35437012 10.19177246 C-15.4084823 7.9218025 -11.44370518 5.68485138 -7.48242188 3.44189453 C-1.55672198 0 -1.55672198 0 0 0 Z " fill="#DFE4F0" transform="translate(482,319)"/>
<path d="M0 0 C0 4.29 0 8.58 0 13 C-1.70800781 13.969375 -3.41601562 14.93875 -5.17578125 15.9375 C-7.55506445 17.29100994 -9.93403885 18.64504735 -12.3125 20 C-12.9335965 20.35370667 -13.55469299 20.70741333 -14.1946106 21.07183838 C-21.39535849 25.1763582 -28.57302255 29.3152388 -35.6953125 33.5546875 C-36.30857895 33.91967346 -36.9218454 34.28465942 -37.55369568 34.66070557 C-40.49902947 36.41591237 -43.44053858 38.17725366 -46.37817383 39.9453125 C-47.4380249 40.57953125 -48.49787598 41.21375 -49.58984375 41.8671875 C-50.51659912 42.42519043 -51.44335449 42.98319336 -52.39819336 43.55810547 C-55 45 -55 45 -60 47 C-60 42.71 -60 38.42 -60 34 C-58.2571875 33.00742187 -56.514375 32.01484375 -54.71875 30.9921875 C-40.75299794 23.02978626 -26.82253049 15.01342954 -12.94921875 6.890625 C-11.29974224 5.92663304 -9.65002525 4.9630524 -8 4 C-6.92032959 3.36868164 -6.92032959 3.36868164 -5.81884766 2.72460938 C-1.11758428 0 -1.11758428 0 0 0 Z " fill="#DFE4F0" transform="translate(482,271)"/>
<path d="M0 0 C4.7990969 0.78741659 7.87914943 2.49516926 12 5 C11.42742802 8.59733157 10.4966065 11.27324925 8.6640625 14.4140625 C8.18163086 15.2491333 7.69919922 16.0842041 7.20214844 16.94458008 C6.68168945 17.82911865 6.16123047 18.71365723 5.625 19.625 C5.09422852 20.53983154 4.56345703 21.45466309 4.01660156 22.3972168 C2.90820628 24.30639321 1.79682946 26.21384148 0.68261719 28.11962891 C-1.48270463 31.82631301 -3.62907819 35.54380001 -5.77587891 39.26123047 C-7.84577828 42.84361677 -9.92266851 46.42191919 -12 50 C-16.29183459 48.35442612 -20.04580299 46.32599824 -24 44 C-22.74315339 39.88339382 -21.21817614 36.35477858 -19.0234375 32.65625 C-18.43836426 31.66302734 -17.85329102 30.66980469 -17.25048828 29.64648438 C-16.63157715 28.60814453 -16.01266602 27.56980469 -15.375 26.5 C-14.10891168 24.35444001 -12.84328481 22.20860764 -11.578125 20.0625 C-10.96517578 19.02609375 -10.35222656 17.9896875 -9.72070312 16.921875 C-7.48941531 13.13299126 -5.29801215 9.32253059 -3.125 5.5 C-2.50882812 4.4171875 -1.89265625 3.334375 -1.2578125 2.21875 C-0.63519531 1.12046875 -0.63519531 1.12046875 0 0 Z " fill="#3C55D0" transform="translate(430,151)"/>
<path d="M0 0 C3.2074015 0.73135804 5.4815454 1.76300451 8.25 3.5625 C8.95640625 4.01753906 9.6628125 4.47257812 10.390625 4.94140625 C10.92171875 5.29074219 11.4528125 5.64007813 12 6 C10.49377717 10.03398818 8.59708635 13.71328267 6.515625 17.48046875 C6.17754822 18.09336258 5.83947144 18.70625641 5.4911499 19.33772278 C4.77641735 20.63192462 4.06026369 21.92534254 3.34277344 23.21801758 C2.26399875 25.16227035 1.19023081 27.10922003 0.1171875 29.05664062 C-3.78561327 36.12141395 -7.7789188 43.11907322 -12 50 C-16.61513112 48.68139111 -20.09897612 46.78644563 -24 44 C-22.55272698 40.14340921 -20.77437925 36.6237881 -18.76953125 33.02734375 C-18.13080078 31.87943359 -17.49207031 30.73152344 -16.83398438 29.54882812 C-16.50100342 28.95400635 -16.16802246 28.35918457 -15.82495117 27.74633789 C-14.82997483 25.96872041 -13.83938891 24.18871835 -12.84960938 22.40820312 C-8.65829496 14.88375289 -4.36874225 7.42270274 0 0 Z " fill="#EFA245" transform="translate(340,99)"/>
<path d="M0 0 C4.27950966 1.68222626 8.04054217 3.67090716 12 6 C10.49377717 10.03398818 8.59708635 13.71328267 6.515625 17.48046875 C6.17754822 18.09336258 5.83947144 18.70625641 5.4911499 19.33772278 C4.77641735 20.63192462 4.06026369 21.92534254 3.34277344 23.21801758 C2.26399875 25.16227035 1.19023081 27.10922003 0.1171875 29.05664062 C-3.78561327 36.12141395 -7.7789188 43.11907322 -12 50 C-16.7973478 49.11236977 -19.84575052 47.52513204 -24 45 C-23.44944978 40.21021308 -21.2252321 36.6483269 -18.75 32.625 C-17.84954321 31.13012073 -16.95122765 29.63395027 -16.0546875 28.13671875 C-15.56838867 27.32509277 -15.08208984 26.5134668 -14.58105469 25.67724609 C-11.60580817 20.63917425 -8.74525496 15.53587528 -5.875 10.4375 C-5.29459961 9.4077002 -4.71419922 8.37790039 -4.11621094 7.31689453 C-2.74286315 4.87864478 -1.37074268 2.43971496 0 0 Z " fill="#D33950" transform="translate(250,47)"/>
</svg>
